<mxfile host="app.diagrams.net" modified="2024-05-28T14:38:52.446Z" agent="Mozilla/5.0 (Windows NT 10.0; Win64; x64) AppleWebKit/537.36 (KHTML, like Gecko) Chrome/121.0.0.0 Safari/537.36" etag="z0BTQ4HzcM_jiGWaZm8D" version="24.4.9" type="device" pages="5">
  <diagram name="Cliente" id="WX7Fgun8oqsMYBenGJfl">
    <mxGraphModel dx="1674" dy="782" grid="1" gridSize="10" guides="1" tooltips="1" connect="1" arrows="1" fold="1" page="1" pageScale="1" pageWidth="827" pageHeight="1169" math="0" shadow="0">
      <root>
        <mxCell id="0" />
        <mxCell id="1" parent="0" />
        <mxCell id="LFsSEbLNnqHihYIEL3Hb-8" value="" style="edgeStyle=orthogonalEdgeStyle;rounded=0;orthogonalLoop=1;jettySize=auto;html=1;" edge="1" parent="1" source="LFsSEbLNnqHihYIEL3Hb-6" target="LFsSEbLNnqHihYIEL3Hb-7">
          <mxGeometry relative="1" as="geometry" />
        </mxCell>
        <mxCell id="LFsSEbLNnqHihYIEL3Hb-6" value="Inicio&lt;div&gt;&lt;br&gt;&lt;/div&gt;" style="ellipse;whiteSpace=wrap;html=1;" vertex="1" parent="1">
          <mxGeometry x="354" width="120" height="80" as="geometry" />
        </mxCell>
        <mxCell id="LFsSEbLNnqHihYIEL3Hb-10" value="" style="edgeStyle=orthogonalEdgeStyle;rounded=0;orthogonalLoop=1;jettySize=auto;html=1;" edge="1" parent="1" source="LFsSEbLNnqHihYIEL3Hb-7" target="LFsSEbLNnqHihYIEL3Hb-9">
          <mxGeometry relative="1" as="geometry" />
        </mxCell>
        <mxCell id="LFsSEbLNnqHihYIEL3Hb-28" value="" style="edgeStyle=orthogonalEdgeStyle;rounded=0;orthogonalLoop=1;jettySize=auto;html=1;" edge="1" parent="1" source="LFsSEbLNnqHihYIEL3Hb-7" target="LFsSEbLNnqHihYIEL3Hb-27">
          <mxGeometry relative="1" as="geometry" />
        </mxCell>
        <mxCell id="LFsSEbLNnqHihYIEL3Hb-7" value="cadastro&lt;div&gt;cliente&lt;/div&gt;" style="rhombus;whiteSpace=wrap;html=1;" vertex="1" parent="1">
          <mxGeometry x="374" y="160" width="80" height="80" as="geometry" />
        </mxCell>
        <mxCell id="LFsSEbLNnqHihYIEL3Hb-12" value="" style="edgeStyle=orthogonalEdgeStyle;rounded=0;orthogonalLoop=1;jettySize=auto;html=1;" edge="1" parent="1" source="LFsSEbLNnqHihYIEL3Hb-9" target="LFsSEbLNnqHihYIEL3Hb-11">
          <mxGeometry relative="1" as="geometry" />
        </mxCell>
        <mxCell id="LFsSEbLNnqHihYIEL3Hb-9" value="buscar&amp;nbsp;&lt;div&gt;cliente&lt;/div&gt;" style="whiteSpace=wrap;html=1;" vertex="1" parent="1">
          <mxGeometry x="354" y="330" width="120" height="60" as="geometry" />
        </mxCell>
        <mxCell id="LFsSEbLNnqHihYIEL3Hb-13" value="não" style="edgeStyle=orthogonalEdgeStyle;rounded=0;orthogonalLoop=1;jettySize=auto;html=1;entryX=0;entryY=0.5;entryDx=0;entryDy=0;" edge="1" parent="1" source="LFsSEbLNnqHihYIEL3Hb-11" target="LFsSEbLNnqHihYIEL3Hb-9">
          <mxGeometry relative="1" as="geometry">
            <Array as="points">
              <mxPoint x="334" y="500" />
              <mxPoint x="334" y="360" />
            </Array>
          </mxGeometry>
        </mxCell>
        <mxCell id="LFsSEbLNnqHihYIEL3Hb-15" value="sim" style="edgeStyle=orthogonalEdgeStyle;rounded=0;orthogonalLoop=1;jettySize=auto;html=1;" edge="1" parent="1" source="LFsSEbLNnqHihYIEL3Hb-11" target="LFsSEbLNnqHihYIEL3Hb-14">
          <mxGeometry relative="1" as="geometry">
            <Array as="points">
              <mxPoint x="510" y="500" />
              <mxPoint x="510" y="370" />
            </Array>
          </mxGeometry>
        </mxCell>
        <mxCell id="LFsSEbLNnqHihYIEL3Hb-11" value="cliente&amp;nbsp;&lt;div&gt;encontrado&lt;/div&gt;" style="rhombus;whiteSpace=wrap;html=1;" vertex="1" parent="1">
          <mxGeometry x="374" y="460" width="80" height="80" as="geometry" />
        </mxCell>
        <mxCell id="LFsSEbLNnqHihYIEL3Hb-17" value="" style="edgeStyle=orthogonalEdgeStyle;rounded=0;orthogonalLoop=1;jettySize=auto;html=1;" edge="1" parent="1" source="LFsSEbLNnqHihYIEL3Hb-14" target="LFsSEbLNnqHihYIEL3Hb-16">
          <mxGeometry relative="1" as="geometry" />
        </mxCell>
        <mxCell id="LFsSEbLNnqHihYIEL3Hb-22" value="não" style="edgeStyle=orthogonalEdgeStyle;rounded=0;orthogonalLoop=1;jettySize=auto;html=1;" edge="1" parent="1" source="LFsSEbLNnqHihYIEL3Hb-14" target="LFsSEbLNnqHihYIEL3Hb-21">
          <mxGeometry relative="1" as="geometry" />
        </mxCell>
        <mxCell id="LFsSEbLNnqHihYIEL3Hb-14" value="apagar&lt;div&gt;cliente&lt;/div&gt;" style="rhombus;whiteSpace=wrap;html=1;" vertex="1" parent="1">
          <mxGeometry x="534" y="330" width="80" height="80" as="geometry" />
        </mxCell>
        <mxCell id="LFsSEbLNnqHihYIEL3Hb-19" value="" style="edgeStyle=orthogonalEdgeStyle;rounded=0;orthogonalLoop=1;jettySize=auto;html=1;" edge="1" parent="1" source="LFsSEbLNnqHihYIEL3Hb-16" target="LFsSEbLNnqHihYIEL3Hb-18">
          <mxGeometry relative="1" as="geometry" />
        </mxCell>
        <mxCell id="LFsSEbLNnqHihYIEL3Hb-16" value="&lt;div&gt;confirmação&lt;/div&gt;" style="rhombus;whiteSpace=wrap;html=1;" vertex="1" parent="1">
          <mxGeometry x="534" y="490" width="80" height="80" as="geometry" />
        </mxCell>
        <mxCell id="LFsSEbLNnqHihYIEL3Hb-20" style="edgeStyle=orthogonalEdgeStyle;rounded=0;orthogonalLoop=1;jettySize=auto;html=1;entryX=0;entryY=0.5;entryDx=0;entryDy=0;" edge="1" parent="1" source="LFsSEbLNnqHihYIEL3Hb-18" target="LFsSEbLNnqHihYIEL3Hb-7">
          <mxGeometry relative="1" as="geometry">
            <Array as="points">
              <mxPoint x="280" y="690" />
              <mxPoint x="280" y="200" />
            </Array>
          </mxGeometry>
        </mxCell>
        <mxCell id="LFsSEbLNnqHihYIEL3Hb-41" style="edgeStyle=orthogonalEdgeStyle;rounded=0;orthogonalLoop=1;jettySize=auto;html=1;" edge="1" parent="1" source="LFsSEbLNnqHihYIEL3Hb-18" target="LFsSEbLNnqHihYIEL3Hb-40">
          <mxGeometry relative="1" as="geometry">
            <Array as="points">
              <mxPoint x="574" y="780" />
              <mxPoint x="1110" y="780" />
            </Array>
          </mxGeometry>
        </mxCell>
        <mxCell id="LFsSEbLNnqHihYIEL3Hb-18" value="apagar cliente" style="whiteSpace=wrap;html=1;" vertex="1" parent="1">
          <mxGeometry x="514" y="660" width="120" height="60" as="geometry" />
        </mxCell>
        <mxCell id="LFsSEbLNnqHihYIEL3Hb-24" value="" style="edgeStyle=orthogonalEdgeStyle;rounded=0;orthogonalLoop=1;jettySize=auto;html=1;" edge="1" parent="1" source="LFsSEbLNnqHihYIEL3Hb-21" target="LFsSEbLNnqHihYIEL3Hb-23">
          <mxGeometry relative="1" as="geometry" />
        </mxCell>
        <mxCell id="LFsSEbLNnqHihYIEL3Hb-21" value="Atualizar&amp;nbsp;&lt;div&gt;cliente&lt;/div&gt;" style="rhombus;whiteSpace=wrap;html=1;" vertex="1" parent="1">
          <mxGeometry x="694" y="330" width="80" height="80" as="geometry" />
        </mxCell>
        <mxCell id="LFsSEbLNnqHihYIEL3Hb-26" value="sim" style="edgeStyle=orthogonalEdgeStyle;rounded=0;orthogonalLoop=1;jettySize=auto;html=1;" edge="1" parent="1" source="LFsSEbLNnqHihYIEL3Hb-23" target="LFsSEbLNnqHihYIEL3Hb-25">
          <mxGeometry relative="1" as="geometry" />
        </mxCell>
        <mxCell id="LFsSEbLNnqHihYIEL3Hb-23" value="dados&lt;div&gt;validos&lt;/div&gt;" style="rhombus;whiteSpace=wrap;html=1;" vertex="1" parent="1">
          <mxGeometry x="694" y="490" width="80" height="80" as="geometry" />
        </mxCell>
        <mxCell id="LFsSEbLNnqHihYIEL3Hb-25" value="cadastro atualizado" style="whiteSpace=wrap;html=1;" vertex="1" parent="1">
          <mxGeometry x="674" y="660" width="120" height="60" as="geometry" />
        </mxCell>
        <mxCell id="LFsSEbLNnqHihYIEL3Hb-35" value="" style="edgeStyle=orthogonalEdgeStyle;rounded=0;orthogonalLoop=1;jettySize=auto;html=1;" edge="1" parent="1" source="LFsSEbLNnqHihYIEL3Hb-27" target="LFsSEbLNnqHihYIEL3Hb-34">
          <mxGeometry relative="1" as="geometry" />
        </mxCell>
        <mxCell id="LFsSEbLNnqHihYIEL3Hb-27" value="cadastrar&lt;div&gt;cliente&lt;/div&gt;" style="whiteSpace=wrap;html=1;" vertex="1" parent="1">
          <mxGeometry x="860" y="170" width="120" height="60" as="geometry" />
        </mxCell>
        <mxCell id="LFsSEbLNnqHihYIEL3Hb-37" value="não" style="edgeStyle=orthogonalEdgeStyle;rounded=0;orthogonalLoop=1;jettySize=auto;html=1;" edge="1" parent="1" source="LFsSEbLNnqHihYIEL3Hb-34" target="LFsSEbLNnqHihYIEL3Hb-36">
          <mxGeometry relative="1" as="geometry" />
        </mxCell>
        <mxCell id="LFsSEbLNnqHihYIEL3Hb-39" value="" style="edgeStyle=orthogonalEdgeStyle;rounded=0;orthogonalLoop=1;jettySize=auto;html=1;" edge="1" parent="1" source="LFsSEbLNnqHihYIEL3Hb-34" target="LFsSEbLNnqHihYIEL3Hb-38">
          <mxGeometry relative="1" as="geometry" />
        </mxCell>
        <mxCell id="LFsSEbLNnqHihYIEL3Hb-34" value="dados&lt;div&gt;validos&lt;/div&gt;" style="rhombus;whiteSpace=wrap;html=1;" vertex="1" parent="1">
          <mxGeometry x="880" y="300" width="80" height="80" as="geometry" />
        </mxCell>
        <mxCell id="LFsSEbLNnqHihYIEL3Hb-46" style="edgeStyle=orthogonalEdgeStyle;rounded=0;orthogonalLoop=1;jettySize=auto;html=1;entryX=1;entryY=0.5;entryDx=0;entryDy=0;" edge="1" parent="1" source="LFsSEbLNnqHihYIEL3Hb-36" target="LFsSEbLNnqHihYIEL3Hb-27">
          <mxGeometry relative="1" as="geometry">
            <Array as="points">
              <mxPoint x="1080" y="200" />
            </Array>
          </mxGeometry>
        </mxCell>
        <mxCell id="LFsSEbLNnqHihYIEL3Hb-36" value="mostrar erro" style="whiteSpace=wrap;html=1;" vertex="1" parent="1">
          <mxGeometry x="1020" y="310" width="120" height="60" as="geometry" />
        </mxCell>
        <mxCell id="LFsSEbLNnqHihYIEL3Hb-44" style="edgeStyle=orthogonalEdgeStyle;rounded=0;orthogonalLoop=1;jettySize=auto;html=1;" edge="1" parent="1" source="LFsSEbLNnqHihYIEL3Hb-38" target="LFsSEbLNnqHihYIEL3Hb-40">
          <mxGeometry relative="1" as="geometry" />
        </mxCell>
        <mxCell id="LFsSEbLNnqHihYIEL3Hb-38" value="cadastro&lt;div&gt;realizado&lt;/div&gt;" style="whiteSpace=wrap;html=1;" vertex="1" parent="1">
          <mxGeometry x="860" y="470" width="120" height="60" as="geometry" />
        </mxCell>
        <mxCell id="LFsSEbLNnqHihYIEL3Hb-40" value="fim" style="ellipse;whiteSpace=wrap;html=1;" vertex="1" parent="1">
          <mxGeometry x="1050" y="640" width="120" height="80" as="geometry" />
        </mxCell>
        <mxCell id="LFsSEbLNnqHihYIEL3Hb-43" value="" style="endArrow=classic;html=1;rounded=0;exitX=1;exitY=0.5;exitDx=0;exitDy=0;entryX=0.001;entryY=0.624;entryDx=0;entryDy=0;entryPerimeter=0;" edge="1" parent="1" source="LFsSEbLNnqHihYIEL3Hb-25" target="LFsSEbLNnqHihYIEL3Hb-40">
          <mxGeometry width="50" height="50" relative="1" as="geometry">
            <mxPoint x="940" y="740" as="sourcePoint" />
            <mxPoint x="990" y="690" as="targetPoint" />
          </mxGeometry>
        </mxCell>
      </root>
    </mxGraphModel>
  </diagram>
  <diagram id="8Cx0tz3jVGJEAsX-mzX9" name="Fornecedor">
    <mxGraphModel dx="1116" dy="1690" grid="1" gridSize="10" guides="1" tooltips="1" connect="1" arrows="1" fold="1" page="1" pageScale="1" pageWidth="827" pageHeight="1169" math="0" shadow="0">
      <root>
        <mxCell id="0" />
        <mxCell id="1" parent="0" />
        <mxCell id="uvTrD6oIhbF0XEhOdBx5-35" value="" style="edgeStyle=orthogonalEdgeStyle;rounded=0;orthogonalLoop=1;jettySize=auto;html=1;" edge="1" parent="1" source="uvTrD6oIhbF0XEhOdBx5-37" target="uvTrD6oIhbF0XEhOdBx5-39">
          <mxGeometry relative="1" as="geometry" />
        </mxCell>
        <mxCell id="uvTrD6oIhbF0XEhOdBx5-36" value="" style="edgeStyle=orthogonalEdgeStyle;rounded=0;orthogonalLoop=1;jettySize=auto;html=1;" edge="1" parent="1" source="uvTrD6oIhbF0XEhOdBx5-37" target="uvTrD6oIhbF0XEhOdBx5-57">
          <mxGeometry relative="1" as="geometry" />
        </mxCell>
        <mxCell id="uvTrD6oIhbF0XEhOdBx5-37" value="cadastro&lt;div&gt;fornecedor&lt;/div&gt;" style="rhombus;whiteSpace=wrap;html=1;" vertex="1" parent="1">
          <mxGeometry x="384" y="170" width="80" height="80" as="geometry" />
        </mxCell>
        <mxCell id="uvTrD6oIhbF0XEhOdBx5-38" value="" style="edgeStyle=orthogonalEdgeStyle;rounded=0;orthogonalLoop=1;jettySize=auto;html=1;" edge="1" parent="1" source="uvTrD6oIhbF0XEhOdBx5-39" target="uvTrD6oIhbF0XEhOdBx5-42">
          <mxGeometry relative="1" as="geometry" />
        </mxCell>
        <mxCell id="uvTrD6oIhbF0XEhOdBx5-39" value="buscar&amp;nbsp;&lt;div&gt;fornecedor&lt;br&gt;&lt;/div&gt;" style="whiteSpace=wrap;html=1;" vertex="1" parent="1">
          <mxGeometry x="364" y="340" width="120" height="60" as="geometry" />
        </mxCell>
        <mxCell id="uvTrD6oIhbF0XEhOdBx5-40" value="não" style="edgeStyle=orthogonalEdgeStyle;rounded=0;orthogonalLoop=1;jettySize=auto;html=1;entryX=0;entryY=0.5;entryDx=0;entryDy=0;" edge="1" parent="1" source="uvTrD6oIhbF0XEhOdBx5-42" target="uvTrD6oIhbF0XEhOdBx5-39">
          <mxGeometry relative="1" as="geometry">
            <Array as="points">
              <mxPoint x="344" y="510" />
              <mxPoint x="344" y="370" />
            </Array>
          </mxGeometry>
        </mxCell>
        <mxCell id="uvTrD6oIhbF0XEhOdBx5-41" value="sim" style="edgeStyle=orthogonalEdgeStyle;rounded=0;orthogonalLoop=1;jettySize=auto;html=1;" edge="1" parent="1" source="uvTrD6oIhbF0XEhOdBx5-42" target="uvTrD6oIhbF0XEhOdBx5-45">
          <mxGeometry relative="1" as="geometry">
            <Array as="points">
              <mxPoint x="520" y="510" />
              <mxPoint x="520" y="380" />
            </Array>
          </mxGeometry>
        </mxCell>
        <mxCell id="uvTrD6oIhbF0XEhOdBx5-42" value="cliente&amp;nbsp;&lt;div&gt;encontrado&lt;/div&gt;" style="rhombus;whiteSpace=wrap;html=1;" vertex="1" parent="1">
          <mxGeometry x="384" y="470" width="80" height="80" as="geometry" />
        </mxCell>
        <mxCell id="uvTrD6oIhbF0XEhOdBx5-43" value="" style="edgeStyle=orthogonalEdgeStyle;rounded=0;orthogonalLoop=1;jettySize=auto;html=1;" edge="1" parent="1" source="uvTrD6oIhbF0XEhOdBx5-45" target="uvTrD6oIhbF0XEhOdBx5-47">
          <mxGeometry relative="1" as="geometry" />
        </mxCell>
        <mxCell id="uvTrD6oIhbF0XEhOdBx5-44" value="não" style="edgeStyle=orthogonalEdgeStyle;rounded=0;orthogonalLoop=1;jettySize=auto;html=1;" edge="1" parent="1" source="uvTrD6oIhbF0XEhOdBx5-45" target="uvTrD6oIhbF0XEhOdBx5-52">
          <mxGeometry relative="1" as="geometry" />
        </mxCell>
        <mxCell id="uvTrD6oIhbF0XEhOdBx5-45" value="apagar&lt;div&gt;fornecedor&lt;br&gt;&lt;/div&gt;" style="rhombus;whiteSpace=wrap;html=1;" vertex="1" parent="1">
          <mxGeometry x="544" y="340" width="80" height="80" as="geometry" />
        </mxCell>
        <mxCell id="uvTrD6oIhbF0XEhOdBx5-46" value="" style="edgeStyle=orthogonalEdgeStyle;rounded=0;orthogonalLoop=1;jettySize=auto;html=1;" edge="1" parent="1" source="uvTrD6oIhbF0XEhOdBx5-47" target="uvTrD6oIhbF0XEhOdBx5-50">
          <mxGeometry relative="1" as="geometry" />
        </mxCell>
        <mxCell id="uvTrD6oIhbF0XEhOdBx5-47" value="&lt;div&gt;confirmação&lt;/div&gt;" style="rhombus;whiteSpace=wrap;html=1;" vertex="1" parent="1">
          <mxGeometry x="544" y="500" width="80" height="80" as="geometry" />
        </mxCell>
        <mxCell id="uvTrD6oIhbF0XEhOdBx5-48" style="edgeStyle=orthogonalEdgeStyle;rounded=0;orthogonalLoop=1;jettySize=auto;html=1;entryX=0;entryY=0.5;entryDx=0;entryDy=0;" edge="1" parent="1" source="uvTrD6oIhbF0XEhOdBx5-50" target="uvTrD6oIhbF0XEhOdBx5-37">
          <mxGeometry relative="1" as="geometry">
            <Array as="points">
              <mxPoint x="290" y="700" />
              <mxPoint x="290" y="210" />
            </Array>
          </mxGeometry>
        </mxCell>
        <mxCell id="uvTrD6oIhbF0XEhOdBx5-49" style="edgeStyle=orthogonalEdgeStyle;rounded=0;orthogonalLoop=1;jettySize=auto;html=1;" edge="1" parent="1" source="uvTrD6oIhbF0XEhOdBx5-50" target="uvTrD6oIhbF0XEhOdBx5-65">
          <mxGeometry relative="1" as="geometry">
            <Array as="points">
              <mxPoint x="584" y="790" />
              <mxPoint x="1120" y="790" />
            </Array>
          </mxGeometry>
        </mxCell>
        <mxCell id="uvTrD6oIhbF0XEhOdBx5-50" value="apagar fornecedor" style="whiteSpace=wrap;html=1;" vertex="1" parent="1">
          <mxGeometry x="524" y="670" width="120" height="60" as="geometry" />
        </mxCell>
        <mxCell id="uvTrD6oIhbF0XEhOdBx5-51" value="" style="edgeStyle=orthogonalEdgeStyle;rounded=0;orthogonalLoop=1;jettySize=auto;html=1;" edge="1" parent="1" source="uvTrD6oIhbF0XEhOdBx5-52" target="uvTrD6oIhbF0XEhOdBx5-54">
          <mxGeometry relative="1" as="geometry" />
        </mxCell>
        <mxCell id="uvTrD6oIhbF0XEhOdBx5-52" value="Atualizar&amp;nbsp;&lt;div&gt;fornecedor&lt;br&gt;&lt;/div&gt;" style="rhombus;whiteSpace=wrap;html=1;" vertex="1" parent="1">
          <mxGeometry x="704" y="340" width="80" height="80" as="geometry" />
        </mxCell>
        <mxCell id="uvTrD6oIhbF0XEhOdBx5-53" value="sim" style="edgeStyle=orthogonalEdgeStyle;rounded=0;orthogonalLoop=1;jettySize=auto;html=1;" edge="1" parent="1" source="uvTrD6oIhbF0XEhOdBx5-54" target="uvTrD6oIhbF0XEhOdBx5-55">
          <mxGeometry relative="1" as="geometry" />
        </mxCell>
        <mxCell id="uvTrD6oIhbF0XEhOdBx5-54" value="dados&lt;div&gt;validos&lt;/div&gt;" style="rhombus;whiteSpace=wrap;html=1;" vertex="1" parent="1">
          <mxGeometry x="704" y="500" width="80" height="80" as="geometry" />
        </mxCell>
        <mxCell id="uvTrD6oIhbF0XEhOdBx5-55" value="cadastro atualizado" style="whiteSpace=wrap;html=1;" vertex="1" parent="1">
          <mxGeometry x="684" y="670" width="120" height="60" as="geometry" />
        </mxCell>
        <mxCell id="uvTrD6oIhbF0XEhOdBx5-56" value="" style="edgeStyle=orthogonalEdgeStyle;rounded=0;orthogonalLoop=1;jettySize=auto;html=1;" edge="1" parent="1" source="uvTrD6oIhbF0XEhOdBx5-57" target="uvTrD6oIhbF0XEhOdBx5-60">
          <mxGeometry relative="1" as="geometry" />
        </mxCell>
        <mxCell id="uvTrD6oIhbF0XEhOdBx5-57" value="cadastrar&lt;div&gt;fornecedor&lt;br&gt;&lt;/div&gt;" style="whiteSpace=wrap;html=1;" vertex="1" parent="1">
          <mxGeometry x="870" y="180" width="120" height="60" as="geometry" />
        </mxCell>
        <mxCell id="uvTrD6oIhbF0XEhOdBx5-58" value="não" style="edgeStyle=orthogonalEdgeStyle;rounded=0;orthogonalLoop=1;jettySize=auto;html=1;" edge="1" parent="1" source="uvTrD6oIhbF0XEhOdBx5-60" target="uvTrD6oIhbF0XEhOdBx5-62">
          <mxGeometry relative="1" as="geometry" />
        </mxCell>
        <mxCell id="uvTrD6oIhbF0XEhOdBx5-59" value="" style="edgeStyle=orthogonalEdgeStyle;rounded=0;orthogonalLoop=1;jettySize=auto;html=1;" edge="1" parent="1" source="uvTrD6oIhbF0XEhOdBx5-60" target="uvTrD6oIhbF0XEhOdBx5-64">
          <mxGeometry relative="1" as="geometry" />
        </mxCell>
        <mxCell id="uvTrD6oIhbF0XEhOdBx5-60" value="dados&lt;div&gt;validos&lt;/div&gt;" style="rhombus;whiteSpace=wrap;html=1;" vertex="1" parent="1">
          <mxGeometry x="890" y="310" width="80" height="80" as="geometry" />
        </mxCell>
        <mxCell id="uvTrD6oIhbF0XEhOdBx5-61" style="edgeStyle=orthogonalEdgeStyle;rounded=0;orthogonalLoop=1;jettySize=auto;html=1;entryX=1;entryY=0.5;entryDx=0;entryDy=0;" edge="1" parent="1" source="uvTrD6oIhbF0XEhOdBx5-62" target="uvTrD6oIhbF0XEhOdBx5-57">
          <mxGeometry relative="1" as="geometry">
            <Array as="points">
              <mxPoint x="1090" y="210" />
            </Array>
          </mxGeometry>
        </mxCell>
        <mxCell id="uvTrD6oIhbF0XEhOdBx5-62" value="mostrar erro" style="whiteSpace=wrap;html=1;" vertex="1" parent="1">
          <mxGeometry x="1030" y="320" width="120" height="60" as="geometry" />
        </mxCell>
        <mxCell id="uvTrD6oIhbF0XEhOdBx5-63" style="edgeStyle=orthogonalEdgeStyle;rounded=0;orthogonalLoop=1;jettySize=auto;html=1;" edge="1" parent="1" source="uvTrD6oIhbF0XEhOdBx5-64" target="uvTrD6oIhbF0XEhOdBx5-65">
          <mxGeometry relative="1" as="geometry" />
        </mxCell>
        <mxCell id="uvTrD6oIhbF0XEhOdBx5-64" value="cadastro&lt;div&gt;realizado&lt;/div&gt;" style="whiteSpace=wrap;html=1;" vertex="1" parent="1">
          <mxGeometry x="870" y="480" width="120" height="60" as="geometry" />
        </mxCell>
        <mxCell id="uvTrD6oIhbF0XEhOdBx5-65" value="fim" style="ellipse;whiteSpace=wrap;html=1;" vertex="1" parent="1">
          <mxGeometry x="1060" y="650" width="120" height="80" as="geometry" />
        </mxCell>
        <mxCell id="uvTrD6oIhbF0XEhOdBx5-66" value="" style="endArrow=classic;html=1;rounded=0;exitX=1;exitY=0.5;exitDx=0;exitDy=0;entryX=0.001;entryY=0.624;entryDx=0;entryDy=0;entryPerimeter=0;" edge="1" parent="1" source="uvTrD6oIhbF0XEhOdBx5-55" target="uvTrD6oIhbF0XEhOdBx5-65">
          <mxGeometry width="50" height="50" relative="1" as="geometry">
            <mxPoint x="950" y="750" as="sourcePoint" />
            <mxPoint x="1000" y="700" as="targetPoint" />
          </mxGeometry>
        </mxCell>
        <mxCell id="uvTrD6oIhbF0XEhOdBx5-68" value="" style="edgeStyle=orthogonalEdgeStyle;rounded=0;orthogonalLoop=1;jettySize=auto;html=1;" edge="1" parent="1" source="uvTrD6oIhbF0XEhOdBx5-67" target="uvTrD6oIhbF0XEhOdBx5-37">
          <mxGeometry relative="1" as="geometry" />
        </mxCell>
        <mxCell id="uvTrD6oIhbF0XEhOdBx5-67" value="inicio" style="ellipse;whiteSpace=wrap;html=1;" vertex="1" parent="1">
          <mxGeometry x="364" y="-30" width="120" height="80" as="geometry" />
        </mxCell>
      </root>
    </mxGraphModel>
  </diagram>
  <diagram id="cyT5nVIy6Mlsph9W7sIP" name="Matérias-primas">
    <mxGraphModel dx="1154" dy="1708" grid="1" gridSize="10" guides="1" tooltips="1" connect="1" arrows="1" fold="1" page="1" pageScale="1" pageWidth="827" pageHeight="1169" math="0" shadow="0">
      <root>
        <mxCell id="0" />
        <mxCell id="1" parent="0" />
        <mxCell id="HFr1OxhvR1yRw0EC1uuw-1" value="" style="edgeStyle=orthogonalEdgeStyle;rounded=0;orthogonalLoop=1;jettySize=auto;html=1;" edge="1" parent="1" source="HFr1OxhvR1yRw0EC1uuw-3" target="HFr1OxhvR1yRw0EC1uuw-5">
          <mxGeometry relative="1" as="geometry" />
        </mxCell>
        <mxCell id="HFr1OxhvR1yRw0EC1uuw-2" value="" style="edgeStyle=orthogonalEdgeStyle;rounded=0;orthogonalLoop=1;jettySize=auto;html=1;" edge="1" parent="1" source="HFr1OxhvR1yRw0EC1uuw-3" target="HFr1OxhvR1yRw0EC1uuw-23">
          <mxGeometry relative="1" as="geometry" />
        </mxCell>
        <mxCell id="HFr1OxhvR1yRw0EC1uuw-3" value="cadastro&lt;div&gt;matérias&lt;/div&gt;&lt;div&gt;prima&lt;/div&gt;" style="rhombus;whiteSpace=wrap;html=1;" vertex="1" parent="1">
          <mxGeometry x="384" y="170" width="80" height="80" as="geometry" />
        </mxCell>
        <mxCell id="HFr1OxhvR1yRw0EC1uuw-4" value="" style="edgeStyle=orthogonalEdgeStyle;rounded=0;orthogonalLoop=1;jettySize=auto;html=1;" edge="1" parent="1" source="HFr1OxhvR1yRw0EC1uuw-5" target="HFr1OxhvR1yRw0EC1uuw-8">
          <mxGeometry relative="1" as="geometry" />
        </mxCell>
        <mxCell id="HFr1OxhvR1yRw0EC1uuw-5" value="buscar&amp;nbsp;&lt;div&gt;&lt;div&gt;matérias&lt;/div&gt;&lt;div&gt;prima&lt;/div&gt;&lt;/div&gt;" style="whiteSpace=wrap;html=1;" vertex="1" parent="1">
          <mxGeometry x="364" y="340" width="120" height="60" as="geometry" />
        </mxCell>
        <mxCell id="HFr1OxhvR1yRw0EC1uuw-6" value="não" style="edgeStyle=orthogonalEdgeStyle;rounded=0;orthogonalLoop=1;jettySize=auto;html=1;entryX=0;entryY=0.5;entryDx=0;entryDy=0;" edge="1" parent="1" source="HFr1OxhvR1yRw0EC1uuw-8" target="HFr1OxhvR1yRw0EC1uuw-5">
          <mxGeometry relative="1" as="geometry">
            <Array as="points">
              <mxPoint x="344" y="510" />
              <mxPoint x="344" y="370" />
            </Array>
          </mxGeometry>
        </mxCell>
        <mxCell id="HFr1OxhvR1yRw0EC1uuw-7" value="sim" style="edgeStyle=orthogonalEdgeStyle;rounded=0;orthogonalLoop=1;jettySize=auto;html=1;" edge="1" parent="1" source="HFr1OxhvR1yRw0EC1uuw-8" target="HFr1OxhvR1yRw0EC1uuw-11">
          <mxGeometry relative="1" as="geometry">
            <Array as="points">
              <mxPoint x="520" y="510" />
              <mxPoint x="520" y="380" />
            </Array>
          </mxGeometry>
        </mxCell>
        <mxCell id="HFr1OxhvR1yRw0EC1uuw-8" value="&lt;div&gt;matérias&lt;/div&gt;&lt;span style=&quot;background-color: initial;&quot;&gt;prima&lt;/span&gt;&lt;div&gt;encontrado&lt;br&gt;&lt;/div&gt;" style="rhombus;whiteSpace=wrap;html=1;" vertex="1" parent="1">
          <mxGeometry x="377" y="470" width="94" height="110" as="geometry" />
        </mxCell>
        <mxCell id="HFr1OxhvR1yRw0EC1uuw-9" value="" style="edgeStyle=orthogonalEdgeStyle;rounded=0;orthogonalLoop=1;jettySize=auto;html=1;" edge="1" parent="1" source="HFr1OxhvR1yRw0EC1uuw-11" target="HFr1OxhvR1yRw0EC1uuw-13">
          <mxGeometry relative="1" as="geometry" />
        </mxCell>
        <mxCell id="HFr1OxhvR1yRw0EC1uuw-10" value="não" style="edgeStyle=orthogonalEdgeStyle;rounded=0;orthogonalLoop=1;jettySize=auto;html=1;" edge="1" parent="1" source="HFr1OxhvR1yRw0EC1uuw-11" target="HFr1OxhvR1yRw0EC1uuw-18">
          <mxGeometry relative="1" as="geometry" />
        </mxCell>
        <mxCell id="HFr1OxhvR1yRw0EC1uuw-11" value="apagar&lt;div&gt;&lt;div&gt;matérias&lt;/div&gt;&lt;div&gt;prima&lt;/div&gt;&lt;/div&gt;" style="rhombus;whiteSpace=wrap;html=1;" vertex="1" parent="1">
          <mxGeometry x="544" y="340" width="80" height="80" as="geometry" />
        </mxCell>
        <mxCell id="HFr1OxhvR1yRw0EC1uuw-12" value="" style="edgeStyle=orthogonalEdgeStyle;rounded=0;orthogonalLoop=1;jettySize=auto;html=1;" edge="1" parent="1" source="HFr1OxhvR1yRw0EC1uuw-13" target="HFr1OxhvR1yRw0EC1uuw-16">
          <mxGeometry relative="1" as="geometry" />
        </mxCell>
        <mxCell id="HFr1OxhvR1yRw0EC1uuw-13" value="&lt;div&gt;confirmação&lt;/div&gt;" style="rhombus;whiteSpace=wrap;html=1;" vertex="1" parent="1">
          <mxGeometry x="544" y="500" width="80" height="80" as="geometry" />
        </mxCell>
        <mxCell id="HFr1OxhvR1yRw0EC1uuw-14" style="edgeStyle=orthogonalEdgeStyle;rounded=0;orthogonalLoop=1;jettySize=auto;html=1;entryX=0;entryY=0.5;entryDx=0;entryDy=0;" edge="1" parent="1" source="HFr1OxhvR1yRw0EC1uuw-16" target="HFr1OxhvR1yRw0EC1uuw-3">
          <mxGeometry relative="1" as="geometry">
            <Array as="points">
              <mxPoint x="290" y="700" />
              <mxPoint x="290" y="210" />
            </Array>
          </mxGeometry>
        </mxCell>
        <mxCell id="HFr1OxhvR1yRw0EC1uuw-15" style="edgeStyle=orthogonalEdgeStyle;rounded=0;orthogonalLoop=1;jettySize=auto;html=1;" edge="1" parent="1" source="HFr1OxhvR1yRw0EC1uuw-16" target="HFr1OxhvR1yRw0EC1uuw-31">
          <mxGeometry relative="1" as="geometry">
            <Array as="points">
              <mxPoint x="584" y="790" />
              <mxPoint x="1120" y="790" />
            </Array>
          </mxGeometry>
        </mxCell>
        <mxCell id="HFr1OxhvR1yRw0EC1uuw-16" value="apagar&amp;nbsp;&lt;span style=&quot;background-color: initial;&quot;&gt;matérias&lt;/span&gt;&lt;div&gt;prima&lt;/div&gt;" style="whiteSpace=wrap;html=1;" vertex="1" parent="1">
          <mxGeometry x="524" y="670" width="120" height="60" as="geometry" />
        </mxCell>
        <mxCell id="HFr1OxhvR1yRw0EC1uuw-17" value="" style="edgeStyle=orthogonalEdgeStyle;rounded=0;orthogonalLoop=1;jettySize=auto;html=1;" edge="1" parent="1" source="HFr1OxhvR1yRw0EC1uuw-18" target="HFr1OxhvR1yRw0EC1uuw-20">
          <mxGeometry relative="1" as="geometry" />
        </mxCell>
        <mxCell id="HFr1OxhvR1yRw0EC1uuw-18" value="Atualizar&amp;nbsp;&lt;div&gt;&lt;div&gt;matérias&lt;/div&gt;&lt;div&gt;prima&lt;/div&gt;&lt;/div&gt;" style="rhombus;whiteSpace=wrap;html=1;" vertex="1" parent="1">
          <mxGeometry x="704" y="340" width="80" height="80" as="geometry" />
        </mxCell>
        <mxCell id="HFr1OxhvR1yRw0EC1uuw-19" value="sim" style="edgeStyle=orthogonalEdgeStyle;rounded=0;orthogonalLoop=1;jettySize=auto;html=1;" edge="1" parent="1" source="HFr1OxhvR1yRw0EC1uuw-20" target="HFr1OxhvR1yRw0EC1uuw-21">
          <mxGeometry relative="1" as="geometry" />
        </mxCell>
        <mxCell id="HFr1OxhvR1yRw0EC1uuw-20" value="dados&lt;div&gt;validos&lt;/div&gt;" style="rhombus;whiteSpace=wrap;html=1;" vertex="1" parent="1">
          <mxGeometry x="704" y="500" width="80" height="80" as="geometry" />
        </mxCell>
        <mxCell id="HFr1OxhvR1yRw0EC1uuw-21" value="cadastro atualizado" style="whiteSpace=wrap;html=1;" vertex="1" parent="1">
          <mxGeometry x="684" y="670" width="120" height="60" as="geometry" />
        </mxCell>
        <mxCell id="HFr1OxhvR1yRw0EC1uuw-22" value="" style="edgeStyle=orthogonalEdgeStyle;rounded=0;orthogonalLoop=1;jettySize=auto;html=1;" edge="1" parent="1" source="HFr1OxhvR1yRw0EC1uuw-23" target="HFr1OxhvR1yRw0EC1uuw-26">
          <mxGeometry relative="1" as="geometry" />
        </mxCell>
        <mxCell id="HFr1OxhvR1yRw0EC1uuw-23" value="cadastrar&lt;div&gt;&lt;div&gt;matérias&lt;/div&gt;&lt;div&gt;prima&lt;/div&gt;&lt;/div&gt;" style="whiteSpace=wrap;html=1;" vertex="1" parent="1">
          <mxGeometry x="870" y="180" width="120" height="60" as="geometry" />
        </mxCell>
        <mxCell id="HFr1OxhvR1yRw0EC1uuw-24" value="não" style="edgeStyle=orthogonalEdgeStyle;rounded=0;orthogonalLoop=1;jettySize=auto;html=1;" edge="1" parent="1" source="HFr1OxhvR1yRw0EC1uuw-26" target="HFr1OxhvR1yRw0EC1uuw-28">
          <mxGeometry relative="1" as="geometry" />
        </mxCell>
        <mxCell id="HFr1OxhvR1yRw0EC1uuw-25" value="" style="edgeStyle=orthogonalEdgeStyle;rounded=0;orthogonalLoop=1;jettySize=auto;html=1;" edge="1" parent="1" source="HFr1OxhvR1yRw0EC1uuw-26" target="HFr1OxhvR1yRw0EC1uuw-30">
          <mxGeometry relative="1" as="geometry" />
        </mxCell>
        <mxCell id="HFr1OxhvR1yRw0EC1uuw-26" value="dados&lt;div&gt;validos&lt;/div&gt;" style="rhombus;whiteSpace=wrap;html=1;" vertex="1" parent="1">
          <mxGeometry x="890" y="310" width="80" height="80" as="geometry" />
        </mxCell>
        <mxCell id="HFr1OxhvR1yRw0EC1uuw-27" style="edgeStyle=orthogonalEdgeStyle;rounded=0;orthogonalLoop=1;jettySize=auto;html=1;entryX=1;entryY=0.5;entryDx=0;entryDy=0;" edge="1" parent="1" source="HFr1OxhvR1yRw0EC1uuw-28" target="HFr1OxhvR1yRw0EC1uuw-23">
          <mxGeometry relative="1" as="geometry">
            <Array as="points">
              <mxPoint x="1090" y="210" />
            </Array>
          </mxGeometry>
        </mxCell>
        <mxCell id="HFr1OxhvR1yRw0EC1uuw-28" value="mostrar erro" style="whiteSpace=wrap;html=1;" vertex="1" parent="1">
          <mxGeometry x="1030" y="320" width="120" height="60" as="geometry" />
        </mxCell>
        <mxCell id="HFr1OxhvR1yRw0EC1uuw-29" style="edgeStyle=orthogonalEdgeStyle;rounded=0;orthogonalLoop=1;jettySize=auto;html=1;" edge="1" parent="1" source="HFr1OxhvR1yRw0EC1uuw-30" target="HFr1OxhvR1yRw0EC1uuw-31">
          <mxGeometry relative="1" as="geometry" />
        </mxCell>
        <mxCell id="HFr1OxhvR1yRw0EC1uuw-30" value="cadastro&lt;div&gt;realizado&lt;/div&gt;" style="whiteSpace=wrap;html=1;" vertex="1" parent="1">
          <mxGeometry x="870" y="480" width="120" height="60" as="geometry" />
        </mxCell>
        <mxCell id="HFr1OxhvR1yRw0EC1uuw-31" value="fim" style="ellipse;whiteSpace=wrap;html=1;" vertex="1" parent="1">
          <mxGeometry x="1060" y="650" width="120" height="80" as="geometry" />
        </mxCell>
        <mxCell id="HFr1OxhvR1yRw0EC1uuw-32" value="" style="endArrow=classic;html=1;rounded=0;exitX=1;exitY=0.5;exitDx=0;exitDy=0;entryX=0.001;entryY=0.624;entryDx=0;entryDy=0;entryPerimeter=0;" edge="1" parent="1" source="HFr1OxhvR1yRw0EC1uuw-21" target="HFr1OxhvR1yRw0EC1uuw-31">
          <mxGeometry width="50" height="50" relative="1" as="geometry">
            <mxPoint x="950" y="750" as="sourcePoint" />
            <mxPoint x="1000" y="700" as="targetPoint" />
          </mxGeometry>
        </mxCell>
        <mxCell id="HFr1OxhvR1yRw0EC1uuw-33" value="" style="edgeStyle=orthogonalEdgeStyle;rounded=0;orthogonalLoop=1;jettySize=auto;html=1;" edge="1" parent="1" source="HFr1OxhvR1yRw0EC1uuw-34" target="HFr1OxhvR1yRw0EC1uuw-3">
          <mxGeometry relative="1" as="geometry" />
        </mxCell>
        <mxCell id="HFr1OxhvR1yRw0EC1uuw-34" value="inicio" style="ellipse;whiteSpace=wrap;html=1;" vertex="1" parent="1">
          <mxGeometry x="364" y="-30" width="120" height="80" as="geometry" />
        </mxCell>
      </root>
    </mxGraphModel>
  </diagram>
  <diagram id="3yx1qMSNNwl3Nu_6h322" name="Página-4">
    <mxGraphModel dx="4924" dy="2234" grid="1" gridSize="10" guides="1" tooltips="1" connect="1" arrows="1" fold="1" page="1" pageScale="1" pageWidth="827" pageHeight="1169" background="#FCFCFC" math="0" shadow="0">
      <root>
        <mxCell id="0" />
        <mxCell id="1" parent="0" />
        <mxCell id="sz_i2_uFU6Vz9e3H1PWR-1" value="" style="rounded=1;whiteSpace=wrap;html=1;rotation=90;fillColor=#FFFFFF;gradientColor=#CCCCCC;gradientDirection=north;" vertex="1" parent="1">
          <mxGeometry x="1050" y="510" width="1600" height="900" as="geometry" />
        </mxCell>
        <mxCell id="sz_i2_uFU6Vz9e3H1PWR-60" value="" style="edgeStyle=orthogonalEdgeStyle;rounded=0;orthogonalLoop=1;jettySize=auto;html=1;fontFamily=Helvetica;fontSize=12;fontColor=default;" edge="1" parent="1">
          <mxGeometry relative="1" as="geometry">
            <mxPoint x="1580" y="805.1999999999998" as="sourcePoint" />
            <mxPoint x="1560.1999999999998" y="815.2300613496932" as="targetPoint" />
          </mxGeometry>
        </mxCell>
        <mxCell id="sz_i2_uFU6Vz9e3H1PWR-22" value="&lt;font face=&quot;Comic Sans MS&quot;&gt;&lt;span style=&quot;font-size: 48px;&quot;&gt;Salvar&lt;/span&gt;&lt;/font&gt;" style="text;strokeColor=none;fillColor=none;html=1;fontSize=12;fontStyle=1;verticalAlign=middle;align=left;fontFamily=Helvetica;fontColor=default;" vertex="1" parent="1">
          <mxGeometry x="2000" y="1620" width="160" height="160" as="geometry" />
        </mxCell>
        <mxCell id="sz_i2_uFU6Vz9e3H1PWR-23" value="&lt;font face=&quot;Comic Sans MS&quot;&gt;&lt;span style=&quot;font-size: 48px;&quot;&gt;Apagar&lt;/span&gt;&lt;/font&gt;" style="text;strokeColor=none;fillColor=none;html=1;fontSize=12;fontStyle=1;verticalAlign=middle;align=left;fontFamily=Helvetica;fontColor=default;" vertex="1" parent="1">
          <mxGeometry x="1550" y="1620" width="190" height="160" as="geometry" />
        </mxCell>
        <mxCell id="sz_i2_uFU6Vz9e3H1PWR-24" value="" style="verticalLabelPosition=bottom;verticalAlign=top;html=1;shape=mxgraph.basic.x;rounded=1;strokeColor=#B20000;align=center;fontFamily=Helvetica;fontSize=12;fontColor=#ffffff;fillColor=#e51400;labelBackgroundColor=#FF0000;" vertex="1" parent="1">
          <mxGeometry x="1560" y="1530" width="150" height="140" as="geometry" />
        </mxCell>
        <mxCell id="sz_i2_uFU6Vz9e3H1PWR-26" value="" style="verticalLabelPosition=bottom;verticalAlign=top;html=1;shape=mxgraph.basic.tick;rounded=1;strokeColor=#2D7600;align=center;fontFamily=Helvetica;fontSize=12;fontColor=#ffffff;fillColor=#60a917;" vertex="1" parent="1">
          <mxGeometry x="2018" y="1520" width="140" height="160" as="geometry" />
        </mxCell>
        <mxCell id="sz_i2_uFU6Vz9e3H1PWR-44" value="" style="rounded=1;whiteSpace=wrap;html=1;rotation=90;fillColor=#FFFFFF;gradientColor=#CCCCCC;gradientDirection=north;" vertex="1" parent="1">
          <mxGeometry x="-440" y="490" width="1600" height="900" as="geometry" />
        </mxCell>
        <mxCell id="sz_i2_uFU6Vz9e3H1PWR-45" value="&lt;font face=&quot;Comic Sans MS&quot; style=&quot;font-size: 72px;&quot;&gt;Cadastro Cliente&lt;/font&gt;" style="text;strokeColor=none;fillColor=none;html=1;fontSize=12;fontStyle=1;verticalAlign=middle;align=center;fontFamily=Helvetica;fontColor=default;" vertex="1" parent="1">
          <mxGeometry x="-113" y="140" width="890" height="160" as="geometry" />
        </mxCell>
        <mxCell id="sz_i2_uFU6Vz9e3H1PWR-46" value="&lt;font style=&quot;font-size: 48px;&quot; face=&quot;Comic Sans MS&quot;&gt;Nome&lt;/font&gt;" style="text;strokeColor=none;fillColor=none;html=1;fontSize=12;fontStyle=1;verticalAlign=middle;align=left;fontFamily=Helvetica;fontColor=default;" vertex="1" parent="1">
          <mxGeometry x="-73" y="245" width="890" height="160" as="geometry" />
        </mxCell>
        <mxCell id="sz_i2_uFU6Vz9e3H1PWR-47" value="&lt;font face=&quot;Comic Sans MS&quot;&gt;&lt;span style=&quot;font-size: 48px;&quot;&gt;Telefone&lt;/span&gt;&lt;/font&gt;" style="text;strokeColor=none;fillColor=none;html=1;fontSize=12;fontStyle=1;verticalAlign=middle;align=left;fontFamily=Helvetica;fontColor=default;" vertex="1" parent="1">
          <mxGeometry x="-73" y="500" width="890" height="160" as="geometry" />
        </mxCell>
        <mxCell id="sz_i2_uFU6Vz9e3H1PWR-48" value="&lt;font face=&quot;Comic Sans MS&quot;&gt;&lt;span style=&quot;font-size: 48px;&quot;&gt;CPF&lt;/span&gt;&lt;/font&gt;" style="text;strokeColor=none;fillColor=none;html=1;fontSize=12;fontStyle=1;verticalAlign=middle;align=left;fontFamily=Helvetica;fontColor=default;" vertex="1" parent="1">
          <mxGeometry x="-73" y="735" width="890" height="160" as="geometry" />
        </mxCell>
        <mxCell id="sz_i2_uFU6Vz9e3H1PWR-49" value="&lt;font face=&quot;Comic Sans MS&quot;&gt;&lt;span style=&quot;font-size: 48px;&quot;&gt;Endereço&lt;/span&gt;&lt;/font&gt;" style="text;strokeColor=none;fillColor=none;html=1;fontSize=12;fontStyle=1;verticalAlign=middle;align=left;fontFamily=Helvetica;fontColor=default;" vertex="1" parent="1">
          <mxGeometry x="-63" y="995" width="890" height="160" as="geometry" />
        </mxCell>
        <mxCell id="sz_i2_uFU6Vz9e3H1PWR-50" value="" style="rounded=1;whiteSpace=wrap;html=1;strokeColor=default;align=center;verticalAlign=middle;fontFamily=Helvetica;fontSize=12;fontColor=default;fillColor=default;" vertex="1" parent="1">
          <mxGeometry x="-73" y="395" width="853" height="130" as="geometry" />
        </mxCell>
        <mxCell id="sz_i2_uFU6Vz9e3H1PWR-51" value="" style="rounded=1;whiteSpace=wrap;html=1;strokeColor=default;align=center;verticalAlign=middle;fontFamily=Helvetica;fontSize=12;fontColor=default;fillColor=default;" vertex="1" parent="1">
          <mxGeometry x="-73" y="625" width="150" height="130" as="geometry" />
        </mxCell>
        <mxCell id="sz_i2_uFU6Vz9e3H1PWR-52" value="" style="rounded=1;whiteSpace=wrap;html=1;strokeColor=default;align=center;verticalAlign=middle;fontFamily=Helvetica;fontSize=12;fontColor=default;fillColor=default;" vertex="1" parent="1">
          <mxGeometry x="-73" y="855" width="850" height="130" as="geometry" />
        </mxCell>
        <mxCell id="sz_i2_uFU6Vz9e3H1PWR-53" value="" style="rounded=1;whiteSpace=wrap;html=1;strokeColor=default;align=center;verticalAlign=middle;fontFamily=Helvetica;fontSize=12;fontColor=default;fillColor=default;" vertex="1" parent="1">
          <mxGeometry x="-63" y="1115" width="870" height="130" as="geometry" />
        </mxCell>
        <mxCell id="sz_i2_uFU6Vz9e3H1PWR-54" value="" style="rounded=1;whiteSpace=wrap;html=1;strokeColor=default;align=center;verticalAlign=middle;fontFamily=Helvetica;fontSize=12;fontColor=default;fillColor=default;" vertex="1" parent="1">
          <mxGeometry x="197" y="625" width="580" height="130" as="geometry" />
        </mxCell>
        <mxCell id="sz_i2_uFU6Vz9e3H1PWR-55" value="&lt;font style=&quot;font-size: 100px;&quot;&gt;-&lt;/font&gt;" style="text;strokeColor=none;fillColor=none;html=1;fontSize=12;fontStyle=1;verticalAlign=middle;align=center;fontFamily=Helvetica;fontColor=default;" vertex="1" parent="1">
          <mxGeometry x="87" y="660" width="100" height="40" as="geometry" />
        </mxCell>
        <mxCell id="sz_i2_uFU6Vz9e3H1PWR-56" value="&lt;font face=&quot;Comic Sans MS&quot;&gt;&lt;span style=&quot;font-size: 48px;&quot;&gt;Salvar&lt;/span&gt;&lt;/font&gt;" style="text;strokeColor=none;fillColor=none;html=1;fontSize=12;fontStyle=1;verticalAlign=middle;align=left;fontFamily=Helvetica;fontColor=default;" vertex="1" parent="1">
          <mxGeometry x="475.5" y="1600" width="160" height="160" as="geometry" />
        </mxCell>
        <mxCell id="sz_i2_uFU6Vz9e3H1PWR-57" value="&lt;font face=&quot;Comic Sans MS&quot;&gt;&lt;span style=&quot;font-size: 48px;&quot;&gt;Apagar&lt;/span&gt;&lt;/font&gt;" style="text;strokeColor=none;fillColor=none;html=1;fontSize=12;fontStyle=1;verticalAlign=middle;align=left;fontFamily=Helvetica;fontColor=default;" vertex="1" parent="1">
          <mxGeometry x="68.5" y="1600" width="190" height="160" as="geometry" />
        </mxCell>
        <mxCell id="sz_i2_uFU6Vz9e3H1PWR-58" value="" style="verticalLabelPosition=bottom;verticalAlign=top;html=1;shape=mxgraph.basic.x;rounded=1;strokeColor=#B20000;align=center;fontFamily=Helvetica;fontSize=12;fontColor=#ffffff;fillColor=#e51400;labelBackgroundColor=#FF0000;" vertex="1" parent="1">
          <mxGeometry x="78.5" y="1500" width="150" height="140" as="geometry" />
        </mxCell>
        <mxCell id="sz_i2_uFU6Vz9e3H1PWR-59" value="" style="verticalLabelPosition=bottom;verticalAlign=top;html=1;shape=mxgraph.basic.tick;rounded=1;strokeColor=#2D7600;align=center;fontFamily=Helvetica;fontSize=12;fontColor=#ffffff;fillColor=#60a917;" vertex="1" parent="1">
          <mxGeometry x="495.5" y="1480" width="140" height="160" as="geometry" />
        </mxCell>
        <mxCell id="sz_i2_uFU6Vz9e3H1PWR-74" value="" style="shape=table;startSize=0;container=1;collapsible=0;childLayout=tableLayout;fontSize=16;rounded=1;strokeColor=default;align=center;verticalAlign=middle;fontFamily=Helvetica;fontColor=default;fillColor=default;" vertex="1" parent="1">
          <mxGeometry x="1410" y="493" width="880" height="313" as="geometry" />
        </mxCell>
        <mxCell id="sz_i2_uFU6Vz9e3H1PWR-75" value="" style="shape=tableRow;horizontal=0;startSize=0;swimlaneHead=0;swimlaneBody=0;strokeColor=inherit;top=0;left=0;bottom=0;right=0;collapsible=0;dropTarget=0;fillColor=none;points=[[0,0.5],[1,0.5]];portConstraint=eastwest;fontSize=16;rounded=1;align=center;verticalAlign=middle;fontFamily=Helvetica;fontColor=default;" vertex="1" parent="sz_i2_uFU6Vz9e3H1PWR-74">
          <mxGeometry width="880" height="103" as="geometry" />
        </mxCell>
        <mxCell id="sz_i2_uFU6Vz9e3H1PWR-76" value="" style="shape=partialRectangle;html=1;whiteSpace=wrap;connectable=0;strokeColor=inherit;overflow=hidden;fillColor=none;top=0;left=0;bottom=0;right=0;pointerEvents=1;fontSize=16;rounded=1;align=center;verticalAlign=middle;fontFamily=Helvetica;fontColor=default;" vertex="1" parent="sz_i2_uFU6Vz9e3H1PWR-75">
          <mxGeometry width="293" height="103" as="geometry">
            <mxRectangle width="293" height="103" as="alternateBounds" />
          </mxGeometry>
        </mxCell>
        <mxCell id="sz_i2_uFU6Vz9e3H1PWR-77" value="" style="shape=partialRectangle;html=1;whiteSpace=wrap;connectable=0;strokeColor=inherit;overflow=hidden;fillColor=none;top=0;left=0;bottom=0;right=0;pointerEvents=1;fontSize=16;rounded=1;align=center;verticalAlign=middle;fontFamily=Helvetica;fontColor=default;" vertex="1" parent="sz_i2_uFU6Vz9e3H1PWR-75">
          <mxGeometry x="293" width="294" height="103" as="geometry">
            <mxRectangle width="294" height="103" as="alternateBounds" />
          </mxGeometry>
        </mxCell>
        <mxCell id="sz_i2_uFU6Vz9e3H1PWR-78" value="" style="shape=partialRectangle;html=1;whiteSpace=wrap;connectable=0;strokeColor=inherit;overflow=hidden;fillColor=none;top=0;left=0;bottom=0;right=0;pointerEvents=1;fontSize=16;rounded=1;align=center;verticalAlign=middle;fontFamily=Helvetica;fontColor=default;" vertex="1" parent="sz_i2_uFU6Vz9e3H1PWR-75">
          <mxGeometry x="587" width="293" height="103" as="geometry">
            <mxRectangle width="293" height="103" as="alternateBounds" />
          </mxGeometry>
        </mxCell>
        <mxCell id="sz_i2_uFU6Vz9e3H1PWR-79" value="" style="shape=tableRow;horizontal=0;startSize=0;swimlaneHead=0;swimlaneBody=0;strokeColor=inherit;top=0;left=0;bottom=0;right=0;collapsible=0;dropTarget=0;fillColor=none;points=[[0,0.5],[1,0.5]];portConstraint=eastwest;fontSize=16;rounded=1;align=center;verticalAlign=middle;fontFamily=Helvetica;fontColor=default;" vertex="1" parent="sz_i2_uFU6Vz9e3H1PWR-74">
          <mxGeometry y="103" width="880" height="107" as="geometry" />
        </mxCell>
        <mxCell id="sz_i2_uFU6Vz9e3H1PWR-80" value="" style="shape=partialRectangle;html=1;whiteSpace=wrap;connectable=0;strokeColor=inherit;overflow=hidden;fillColor=none;top=0;left=0;bottom=0;right=0;pointerEvents=1;fontSize=16;rounded=1;align=center;verticalAlign=middle;fontFamily=Helvetica;fontColor=default;" vertex="1" parent="sz_i2_uFU6Vz9e3H1PWR-79">
          <mxGeometry width="293" height="107" as="geometry">
            <mxRectangle width="293" height="107" as="alternateBounds" />
          </mxGeometry>
        </mxCell>
        <mxCell id="sz_i2_uFU6Vz9e3H1PWR-81" value="" style="shape=partialRectangle;html=1;whiteSpace=wrap;connectable=0;strokeColor=inherit;overflow=hidden;fillColor=none;top=0;left=0;bottom=0;right=0;pointerEvents=1;fontSize=16;rounded=1;align=center;verticalAlign=middle;fontFamily=Helvetica;fontColor=default;" vertex="1" parent="sz_i2_uFU6Vz9e3H1PWR-79">
          <mxGeometry x="293" width="294" height="107" as="geometry">
            <mxRectangle width="294" height="107" as="alternateBounds" />
          </mxGeometry>
        </mxCell>
        <mxCell id="sz_i2_uFU6Vz9e3H1PWR-82" value="" style="shape=partialRectangle;html=1;whiteSpace=wrap;connectable=0;strokeColor=inherit;overflow=hidden;fillColor=none;top=0;left=0;bottom=0;right=0;pointerEvents=1;fontSize=16;rounded=1;align=center;verticalAlign=middle;fontFamily=Helvetica;fontColor=default;" vertex="1" parent="sz_i2_uFU6Vz9e3H1PWR-79">
          <mxGeometry x="587" width="293" height="107" as="geometry">
            <mxRectangle width="293" height="107" as="alternateBounds" />
          </mxGeometry>
        </mxCell>
        <mxCell id="sz_i2_uFU6Vz9e3H1PWR-83" value="" style="shape=tableRow;horizontal=0;startSize=0;swimlaneHead=0;swimlaneBody=0;strokeColor=inherit;top=0;left=0;bottom=0;right=0;collapsible=0;dropTarget=0;fillColor=none;points=[[0,0.5],[1,0.5]];portConstraint=eastwest;fontSize=16;rounded=1;align=center;verticalAlign=middle;fontFamily=Helvetica;fontColor=default;" vertex="1" parent="sz_i2_uFU6Vz9e3H1PWR-74">
          <mxGeometry y="210" width="880" height="103" as="geometry" />
        </mxCell>
        <mxCell id="sz_i2_uFU6Vz9e3H1PWR-84" value="" style="shape=partialRectangle;html=1;whiteSpace=wrap;connectable=0;strokeColor=inherit;overflow=hidden;fillColor=none;top=0;left=0;bottom=0;right=0;pointerEvents=1;fontSize=16;rounded=1;align=center;verticalAlign=middle;fontFamily=Helvetica;fontColor=default;" vertex="1" parent="sz_i2_uFU6Vz9e3H1PWR-83">
          <mxGeometry width="293" height="103" as="geometry">
            <mxRectangle width="293" height="103" as="alternateBounds" />
          </mxGeometry>
        </mxCell>
        <mxCell id="sz_i2_uFU6Vz9e3H1PWR-85" value="" style="shape=partialRectangle;html=1;whiteSpace=wrap;connectable=0;strokeColor=inherit;overflow=hidden;fillColor=none;top=0;left=0;bottom=0;right=0;pointerEvents=1;fontSize=16;rounded=1;align=center;verticalAlign=middle;fontFamily=Helvetica;fontColor=default;" vertex="1" parent="sz_i2_uFU6Vz9e3H1PWR-83">
          <mxGeometry x="293" width="294" height="103" as="geometry">
            <mxRectangle width="294" height="103" as="alternateBounds" />
          </mxGeometry>
        </mxCell>
        <mxCell id="sz_i2_uFU6Vz9e3H1PWR-86" value="" style="shape=partialRectangle;html=1;whiteSpace=wrap;connectable=0;strokeColor=inherit;overflow=hidden;fillColor=none;top=0;left=0;bottom=0;right=0;pointerEvents=1;fontSize=16;rounded=1;align=center;verticalAlign=middle;fontFamily=Helvetica;fontColor=default;" vertex="1" parent="sz_i2_uFU6Vz9e3H1PWR-83">
          <mxGeometry x="587" width="293" height="103" as="geometry">
            <mxRectangle width="293" height="103" as="alternateBounds" />
          </mxGeometry>
        </mxCell>
        <mxCell id="sz_i2_uFU6Vz9e3H1PWR-87" value="" style="shape=table;startSize=0;container=1;collapsible=0;childLayout=tableLayout;fontSize=16;rounded=1;strokeColor=default;align=center;verticalAlign=middle;fontFamily=Helvetica;fontColor=default;fillColor=default;" vertex="1" parent="1">
          <mxGeometry x="1410" y="806" width="880" height="626" as="geometry" />
        </mxCell>
        <mxCell id="sz_i2_uFU6Vz9e3H1PWR-118" value="" style="shape=tableRow;horizontal=0;startSize=0;swimlaneHead=0;swimlaneBody=0;strokeColor=inherit;top=0;left=0;bottom=0;right=0;collapsible=0;dropTarget=0;fillColor=none;points=[[0,0.5],[1,0.5]];portConstraint=eastwest;fontSize=16;rounded=1;align=center;verticalAlign=middle;fontFamily=Helvetica;fontColor=default;" vertex="1" parent="sz_i2_uFU6Vz9e3H1PWR-87">
          <mxGeometry width="880" height="107" as="geometry" />
        </mxCell>
        <mxCell id="sz_i2_uFU6Vz9e3H1PWR-119" value="" style="shape=partialRectangle;html=1;whiteSpace=wrap;connectable=0;strokeColor=inherit;overflow=hidden;fillColor=none;top=0;left=0;bottom=0;right=0;pointerEvents=1;fontSize=16;rounded=1;align=center;verticalAlign=middle;fontFamily=Helvetica;fontColor=default;" vertex="1" parent="sz_i2_uFU6Vz9e3H1PWR-118">
          <mxGeometry width="293" height="107" as="geometry">
            <mxRectangle width="293" height="107" as="alternateBounds" />
          </mxGeometry>
        </mxCell>
        <mxCell id="sz_i2_uFU6Vz9e3H1PWR-120" value="" style="shape=partialRectangle;html=1;whiteSpace=wrap;connectable=0;strokeColor=inherit;overflow=hidden;fillColor=none;top=0;left=0;bottom=0;right=0;pointerEvents=1;fontSize=16;rounded=1;align=center;verticalAlign=middle;fontFamily=Helvetica;fontColor=default;" vertex="1" parent="sz_i2_uFU6Vz9e3H1PWR-118">
          <mxGeometry x="293" width="294" height="107" as="geometry">
            <mxRectangle width="294" height="107" as="alternateBounds" />
          </mxGeometry>
        </mxCell>
        <mxCell id="sz_i2_uFU6Vz9e3H1PWR-121" value="" style="shape=partialRectangle;html=1;whiteSpace=wrap;connectable=0;strokeColor=inherit;overflow=hidden;fillColor=none;top=0;left=0;bottom=0;right=0;pointerEvents=1;fontSize=16;rounded=1;align=center;verticalAlign=middle;fontFamily=Helvetica;fontColor=default;" vertex="1" parent="sz_i2_uFU6Vz9e3H1PWR-118">
          <mxGeometry x="587" width="293" height="107" as="geometry">
            <mxRectangle width="293" height="107" as="alternateBounds" />
          </mxGeometry>
        </mxCell>
        <mxCell id="sz_i2_uFU6Vz9e3H1PWR-114" value="" style="shape=tableRow;horizontal=0;startSize=0;swimlaneHead=0;swimlaneBody=0;strokeColor=inherit;top=0;left=0;bottom=0;right=0;collapsible=0;dropTarget=0;fillColor=none;points=[[0,0.5],[1,0.5]];portConstraint=eastwest;fontSize=16;rounded=1;align=center;verticalAlign=middle;fontFamily=Helvetica;fontColor=default;" vertex="1" parent="sz_i2_uFU6Vz9e3H1PWR-87">
          <mxGeometry y="107" width="880" height="103" as="geometry" />
        </mxCell>
        <mxCell id="sz_i2_uFU6Vz9e3H1PWR-115" value="" style="shape=partialRectangle;html=1;whiteSpace=wrap;connectable=0;strokeColor=inherit;overflow=hidden;fillColor=none;top=0;left=0;bottom=0;right=0;pointerEvents=1;fontSize=16;rounded=1;align=center;verticalAlign=middle;fontFamily=Helvetica;fontColor=default;" vertex="1" parent="sz_i2_uFU6Vz9e3H1PWR-114">
          <mxGeometry width="293" height="103" as="geometry">
            <mxRectangle width="293" height="103" as="alternateBounds" />
          </mxGeometry>
        </mxCell>
        <mxCell id="sz_i2_uFU6Vz9e3H1PWR-116" value="" style="shape=partialRectangle;html=1;whiteSpace=wrap;connectable=0;strokeColor=inherit;overflow=hidden;fillColor=none;top=0;left=0;bottom=0;right=0;pointerEvents=1;fontSize=16;rounded=1;align=center;verticalAlign=middle;fontFamily=Helvetica;fontColor=default;" vertex="1" parent="sz_i2_uFU6Vz9e3H1PWR-114">
          <mxGeometry x="293" width="294" height="103" as="geometry">
            <mxRectangle width="294" height="103" as="alternateBounds" />
          </mxGeometry>
        </mxCell>
        <mxCell id="sz_i2_uFU6Vz9e3H1PWR-117" value="" style="shape=partialRectangle;html=1;whiteSpace=wrap;connectable=0;strokeColor=inherit;overflow=hidden;fillColor=none;top=0;left=0;bottom=0;right=0;pointerEvents=1;fontSize=16;rounded=1;align=center;verticalAlign=middle;fontFamily=Helvetica;fontColor=default;" vertex="1" parent="sz_i2_uFU6Vz9e3H1PWR-114">
          <mxGeometry x="587" width="293" height="103" as="geometry">
            <mxRectangle width="293" height="103" as="alternateBounds" />
          </mxGeometry>
        </mxCell>
        <mxCell id="sz_i2_uFU6Vz9e3H1PWR-122" value="" style="shape=tableRow;horizontal=0;startSize=0;swimlaneHead=0;swimlaneBody=0;strokeColor=inherit;top=0;left=0;bottom=0;right=0;collapsible=0;dropTarget=0;fillColor=none;points=[[0,0.5],[1,0.5]];portConstraint=eastwest;fontSize=16;rounded=1;align=center;verticalAlign=middle;fontFamily=Helvetica;fontColor=default;" vertex="1" parent="sz_i2_uFU6Vz9e3H1PWR-87">
          <mxGeometry y="210" width="880" height="103" as="geometry" />
        </mxCell>
        <mxCell id="sz_i2_uFU6Vz9e3H1PWR-123" value="" style="shape=partialRectangle;html=1;whiteSpace=wrap;connectable=0;strokeColor=inherit;overflow=hidden;fillColor=none;top=0;left=0;bottom=0;right=0;pointerEvents=1;fontSize=16;rounded=1;align=center;verticalAlign=middle;fontFamily=Helvetica;fontColor=default;" vertex="1" parent="sz_i2_uFU6Vz9e3H1PWR-122">
          <mxGeometry width="293" height="103" as="geometry">
            <mxRectangle width="293" height="103" as="alternateBounds" />
          </mxGeometry>
        </mxCell>
        <mxCell id="sz_i2_uFU6Vz9e3H1PWR-124" value="" style="shape=partialRectangle;html=1;whiteSpace=wrap;connectable=0;strokeColor=inherit;overflow=hidden;fillColor=none;top=0;left=0;bottom=0;right=0;pointerEvents=1;fontSize=16;rounded=1;align=center;verticalAlign=middle;fontFamily=Helvetica;fontColor=default;" vertex="1" parent="sz_i2_uFU6Vz9e3H1PWR-122">
          <mxGeometry x="293" width="294" height="103" as="geometry">
            <mxRectangle width="294" height="103" as="alternateBounds" />
          </mxGeometry>
        </mxCell>
        <mxCell id="sz_i2_uFU6Vz9e3H1PWR-125" value="" style="shape=partialRectangle;html=1;whiteSpace=wrap;connectable=0;strokeColor=inherit;overflow=hidden;fillColor=none;top=0;left=0;bottom=0;right=0;pointerEvents=1;fontSize=16;rounded=1;align=center;verticalAlign=middle;fontFamily=Helvetica;fontColor=default;" vertex="1" parent="sz_i2_uFU6Vz9e3H1PWR-122">
          <mxGeometry x="587" width="293" height="103" as="geometry">
            <mxRectangle width="293" height="103" as="alternateBounds" />
          </mxGeometry>
        </mxCell>
        <mxCell id="sz_i2_uFU6Vz9e3H1PWR-88" value="" style="shape=tableRow;horizontal=0;startSize=0;swimlaneHead=0;swimlaneBody=0;strokeColor=inherit;top=0;left=0;bottom=0;right=0;collapsible=0;dropTarget=0;fillColor=none;points=[[0,0.5],[1,0.5]];portConstraint=eastwest;fontSize=16;rounded=1;align=center;verticalAlign=middle;fontFamily=Helvetica;fontColor=default;" vertex="1" parent="sz_i2_uFU6Vz9e3H1PWR-87">
          <mxGeometry y="313" width="880" height="103" as="geometry" />
        </mxCell>
        <mxCell id="sz_i2_uFU6Vz9e3H1PWR-89" value="" style="shape=partialRectangle;html=1;whiteSpace=wrap;connectable=0;strokeColor=inherit;overflow=hidden;fillColor=none;top=0;left=0;bottom=0;right=0;pointerEvents=1;fontSize=16;rounded=1;align=center;verticalAlign=middle;fontFamily=Helvetica;fontColor=default;" vertex="1" parent="sz_i2_uFU6Vz9e3H1PWR-88">
          <mxGeometry width="293" height="103" as="geometry">
            <mxRectangle width="293" height="103" as="alternateBounds" />
          </mxGeometry>
        </mxCell>
        <mxCell id="sz_i2_uFU6Vz9e3H1PWR-90" value="" style="shape=partialRectangle;html=1;whiteSpace=wrap;connectable=0;strokeColor=inherit;overflow=hidden;fillColor=none;top=0;left=0;bottom=0;right=0;pointerEvents=1;fontSize=16;rounded=1;align=center;verticalAlign=middle;fontFamily=Helvetica;fontColor=default;" vertex="1" parent="sz_i2_uFU6Vz9e3H1PWR-88">
          <mxGeometry x="293" width="294" height="103" as="geometry">
            <mxRectangle width="294" height="103" as="alternateBounds" />
          </mxGeometry>
        </mxCell>
        <mxCell id="sz_i2_uFU6Vz9e3H1PWR-91" value="" style="shape=partialRectangle;html=1;whiteSpace=wrap;connectable=0;strokeColor=inherit;overflow=hidden;fillColor=none;top=0;left=0;bottom=0;right=0;pointerEvents=1;fontSize=16;rounded=1;align=center;verticalAlign=middle;fontFamily=Helvetica;fontColor=default;" vertex="1" parent="sz_i2_uFU6Vz9e3H1PWR-88">
          <mxGeometry x="587" width="293" height="103" as="geometry">
            <mxRectangle width="293" height="103" as="alternateBounds" />
          </mxGeometry>
        </mxCell>
        <mxCell id="sz_i2_uFU6Vz9e3H1PWR-92" value="" style="shape=tableRow;horizontal=0;startSize=0;swimlaneHead=0;swimlaneBody=0;strokeColor=inherit;top=0;left=0;bottom=0;right=0;collapsible=0;dropTarget=0;fillColor=none;points=[[0,0.5],[1,0.5]];portConstraint=eastwest;fontSize=16;rounded=1;align=center;verticalAlign=middle;fontFamily=Helvetica;fontColor=default;" vertex="1" parent="sz_i2_uFU6Vz9e3H1PWR-87">
          <mxGeometry y="416" width="880" height="107" as="geometry" />
        </mxCell>
        <mxCell id="sz_i2_uFU6Vz9e3H1PWR-93" value="" style="shape=partialRectangle;html=1;whiteSpace=wrap;connectable=0;strokeColor=inherit;overflow=hidden;fillColor=none;top=0;left=0;bottom=0;right=0;pointerEvents=1;fontSize=16;rounded=1;align=center;verticalAlign=middle;fontFamily=Helvetica;fontColor=default;" vertex="1" parent="sz_i2_uFU6Vz9e3H1PWR-92">
          <mxGeometry width="293" height="107" as="geometry">
            <mxRectangle width="293" height="107" as="alternateBounds" />
          </mxGeometry>
        </mxCell>
        <mxCell id="sz_i2_uFU6Vz9e3H1PWR-94" value="" style="shape=partialRectangle;html=1;whiteSpace=wrap;connectable=0;strokeColor=inherit;overflow=hidden;fillColor=none;top=0;left=0;bottom=0;right=0;pointerEvents=1;fontSize=16;rounded=1;align=center;verticalAlign=middle;fontFamily=Helvetica;fontColor=default;" vertex="1" parent="sz_i2_uFU6Vz9e3H1PWR-92">
          <mxGeometry x="293" width="294" height="107" as="geometry">
            <mxRectangle width="294" height="107" as="alternateBounds" />
          </mxGeometry>
        </mxCell>
        <mxCell id="sz_i2_uFU6Vz9e3H1PWR-95" value="" style="shape=partialRectangle;html=1;whiteSpace=wrap;connectable=0;strokeColor=inherit;overflow=hidden;fillColor=none;top=0;left=0;bottom=0;right=0;pointerEvents=1;fontSize=16;rounded=1;align=center;verticalAlign=middle;fontFamily=Helvetica;fontColor=default;" vertex="1" parent="sz_i2_uFU6Vz9e3H1PWR-92">
          <mxGeometry x="587" width="293" height="107" as="geometry">
            <mxRectangle width="293" height="107" as="alternateBounds" />
          </mxGeometry>
        </mxCell>
        <mxCell id="sz_i2_uFU6Vz9e3H1PWR-96" value="" style="shape=tableRow;horizontal=0;startSize=0;swimlaneHead=0;swimlaneBody=0;strokeColor=inherit;top=0;left=0;bottom=0;right=0;collapsible=0;dropTarget=0;fillColor=none;points=[[0,0.5],[1,0.5]];portConstraint=eastwest;fontSize=16;rounded=1;align=center;verticalAlign=middle;fontFamily=Helvetica;fontColor=default;" vertex="1" parent="sz_i2_uFU6Vz9e3H1PWR-87">
          <mxGeometry y="523" width="880" height="103" as="geometry" />
        </mxCell>
        <mxCell id="sz_i2_uFU6Vz9e3H1PWR-97" value="" style="shape=partialRectangle;html=1;whiteSpace=wrap;connectable=0;strokeColor=inherit;overflow=hidden;fillColor=none;top=0;left=0;bottom=0;right=0;pointerEvents=1;fontSize=16;rounded=1;align=center;verticalAlign=middle;fontFamily=Helvetica;fontColor=default;" vertex="1" parent="sz_i2_uFU6Vz9e3H1PWR-96">
          <mxGeometry width="293" height="103" as="geometry">
            <mxRectangle width="293" height="103" as="alternateBounds" />
          </mxGeometry>
        </mxCell>
        <mxCell id="sz_i2_uFU6Vz9e3H1PWR-98" value="" style="shape=partialRectangle;html=1;whiteSpace=wrap;connectable=0;strokeColor=inherit;overflow=hidden;fillColor=none;top=0;left=0;bottom=0;right=0;pointerEvents=1;fontSize=16;rounded=1;align=center;verticalAlign=middle;fontFamily=Helvetica;fontColor=default;" vertex="1" parent="sz_i2_uFU6Vz9e3H1PWR-96">
          <mxGeometry x="293" width="294" height="103" as="geometry">
            <mxRectangle width="294" height="103" as="alternateBounds" />
          </mxGeometry>
        </mxCell>
        <mxCell id="sz_i2_uFU6Vz9e3H1PWR-99" value="" style="shape=partialRectangle;html=1;whiteSpace=wrap;connectable=0;strokeColor=inherit;overflow=hidden;fillColor=none;top=0;left=0;bottom=0;right=0;pointerEvents=1;fontSize=16;rounded=1;align=center;verticalAlign=middle;fontFamily=Helvetica;fontColor=default;" vertex="1" parent="sz_i2_uFU6Vz9e3H1PWR-96">
          <mxGeometry x="587" width="293" height="103" as="geometry">
            <mxRectangle width="293" height="103" as="alternateBounds" />
          </mxGeometry>
        </mxCell>
        <mxCell id="sz_i2_uFU6Vz9e3H1PWR-140" value="&lt;font face=&quot;Comic Sans MS&quot;&gt;&lt;span style=&quot;font-size: 72px;&quot;&gt;Lista de Cliente&lt;/span&gt;&lt;/font&gt;" style="text;strokeColor=none;fillColor=none;html=1;fontSize=12;fontStyle=1;verticalAlign=middle;align=center;fontFamily=Helvetica;fontColor=default;" vertex="1" parent="1">
          <mxGeometry x="1400" y="120" width="900" height="160" as="geometry" />
        </mxCell>
        <mxCell id="sz_i2_uFU6Vz9e3H1PWR-141" value="" style="line;strokeWidth=10;html=1;rounded=1;strokeColor=default;align=center;verticalAlign=middle;fontFamily=Helvetica;fontSize=12;fontColor=default;fillColor=default;" vertex="1" parent="1">
          <mxGeometry x="1410" y="240" width="880" height="10" as="geometry" />
        </mxCell>
        <mxCell id="sz_i2_uFU6Vz9e3H1PWR-143" value="&lt;font style=&quot;font-size: 48px;&quot; face=&quot;Comic Sans MS&quot;&gt;Nome&lt;/font&gt;" style="text;strokeColor=none;fillColor=none;html=1;fontSize=12;fontStyle=1;verticalAlign=middle;align=left;fontFamily=Helvetica;fontColor=default;" vertex="1" parent="1">
          <mxGeometry x="1480" y="410" width="160" height="100" as="geometry" />
        </mxCell>
        <mxCell id="sz_i2_uFU6Vz9e3H1PWR-144" value="&lt;font face=&quot;Comic Sans MS&quot;&gt;&lt;span style=&quot;font-size: 48px;&quot;&gt;Telefone&lt;/span&gt;&lt;/font&gt;" style="text;strokeColor=none;fillColor=none;html=1;fontSize=12;fontStyle=1;verticalAlign=middle;align=left;fontFamily=Helvetica;fontColor=default;" vertex="1" parent="1">
          <mxGeometry x="1740" y="405" width="210" height="110" as="geometry" />
        </mxCell>
        <mxCell id="sz_i2_uFU6Vz9e3H1PWR-145" value="&lt;font face=&quot;Comic Sans MS&quot;&gt;&lt;span style=&quot;font-size: 48px;&quot;&gt;CPF&lt;/span&gt;&lt;/font&gt;" style="text;strokeColor=none;fillColor=none;html=1;fontSize=12;fontStyle=1;verticalAlign=middle;align=left;fontFamily=Helvetica;fontColor=default;" vertex="1" parent="1">
          <mxGeometry x="2130" y="415" width="100" height="90" as="geometry" />
        </mxCell>
        <mxCell id="sz_i2_uFU6Vz9e3H1PWR-150" value="&lt;font face=&quot;Times New Roman&quot; color=&quot;#ff0000&quot; style=&quot;font-size: 36px;&quot;&gt;Dados Invalidos&lt;/font&gt;" style="text;html=1;align=center;verticalAlign=middle;whiteSpace=wrap;rounded=0;fontFamily=Helvetica;fontSize=12;fontColor=default;" vertex="1" parent="1">
          <mxGeometry x="870" y="525" width="480" height="30" as="geometry" />
        </mxCell>
        <mxCell id="sz_i2_uFU6Vz9e3H1PWR-151" value="&lt;ul&gt;&lt;li&gt;&lt;span style=&quot;font-size: 18px; background-color: initial;&quot;&gt;&lt;font color=&quot;#d90000&quot;&gt;Valide os dados para conseguir concluir o cadastro&lt;/font&gt;&lt;/span&gt;&lt;/li&gt;&lt;/ul&gt;&lt;div&gt;&lt;font color=&quot;#d90000&quot; style=&quot;font-size: 6px;&quot;&gt;&lt;br&gt;&lt;/font&gt;&lt;/div&gt;&lt;ul&gt;&lt;li&gt;&lt;span style=&quot;font-size: 18px; background-color: initial;&quot;&gt;&lt;font color=&quot;#d90000&quot;&gt;Verifique que o CASP LOCK esta desativado&amp;nbsp;&lt;/font&gt;&lt;/span&gt;&lt;/li&gt;&lt;/ul&gt;" style="text;html=1;align=left;verticalAlign=middle;whiteSpace=wrap;rounded=0;fontFamily=Helvetica;fontSize=12;fontColor=default;" vertex="1" parent="1">
          <mxGeometry x="870" y="610" width="480" height="30" as="geometry" />
        </mxCell>
        <mxCell id="sz_i2_uFU6Vz9e3H1PWR-153" value="&lt;font style=&quot;font-size: 72px;&quot; face=&quot;Times New Roman&quot; color=&quot;#ff0000&quot;&gt;ERRO&lt;/font&gt;" style="text;html=1;align=center;verticalAlign=middle;whiteSpace=wrap;rounded=0;fontFamily=Helvetica;fontSize=12;fontColor=default;" vertex="1" parent="1">
          <mxGeometry x="870" y="470" width="480" height="30" as="geometry" />
        </mxCell>
        <mxCell id="sz_i2_uFU6Vz9e3H1PWR-154" value="" style="verticalLabelPosition=bottom;verticalAlign=top;html=1;shape=mxgraph.basic.plaque_frame;dx=10;whiteSpace=wrap;rounded=1;align=center;fontFamily=Helvetica;fontSize=12;fillColor=#f8cecc;strokeColor=#b85450;" vertex="1" parent="1">
          <mxGeometry x="870" y="440" width="480" height="250" as="geometry" />
        </mxCell>
        <mxCell id="sz_i2_uFU6Vz9e3H1PWR-156" value="" style="edgeStyle=orthogonalEdgeStyle;rounded=0;orthogonalLoop=1;jettySize=auto;html=1;fontFamily=Helvetica;fontSize=12;fontColor=default;" edge="1" parent="1">
          <mxGeometry relative="1" as="geometry">
            <mxPoint x="1182" y="2445.2" as="sourcePoint" />
            <mxPoint x="1162.1999999999998" y="2455.230061349693" as="targetPoint" />
          </mxGeometry>
        </mxCell>
        <mxCell id="sz_i2_uFU6Vz9e3H1PWR-213" value="" style="line;strokeWidth=10;html=1;rounded=1;strokeColor=default;align=center;verticalAlign=middle;fontFamily=Helvetica;fontSize=12;fontColor=default;fillColor=default;" vertex="1" parent="1">
          <mxGeometry x="-90" y="264" width="900" height="10" as="geometry" />
        </mxCell>
        <mxCell id="sz_i2_uFU6Vz9e3H1PWR-219" value="" style="shape=image;html=1;verticalLabelPosition=bottom;verticalAlign=top;imageAspect=1;aspect=fixed;image=https://cdn-icons-png.flaticon.com/512/57/57477.png;rounded=1;strokeColor=default;align=center;fontFamily=Helvetica;fontSize=12;fontColor=default;fillColor=default;" vertex="1" parent="1">
          <mxGeometry x="1427.47" y="318.5" width="52.53" height="61.63" as="geometry" />
        </mxCell>
        <mxCell id="sz_i2_uFU6Vz9e3H1PWR-220" value="&lt;span style=&quot;font-size: 24px; color: rgb(179, 179, 179); background-color: initial;&quot;&gt;&amp;nbsp;&lt;/span&gt;&lt;span style=&quot;color: rgb(179, 179, 179); background-color: initial;&quot;&gt;&lt;font style=&quot;font-size: 30px;&quot;&gt;Buscar&lt;/font&gt;&lt;/span&gt;" style="rounded=1;whiteSpace=wrap;html=1;strokeColor=default;align=left;verticalAlign=middle;fontFamily=Helvetica;fontSize=12;fontColor=default;fillColor=default;" vertex="1" parent="1">
          <mxGeometry x="1500" y="318.5" width="793" height="65" as="geometry" />
        </mxCell>
        <mxCell id="sz_i2_uFU6Vz9e3H1PWR-221" value="" style="rounded=1;whiteSpace=wrap;html=1;rotation=90;fillColor=#FFFFFF;gradientColor=#CCCCCC;gradientDirection=north;" vertex="1" parent="1">
          <mxGeometry x="-478" y="2160" width="1600" height="900" as="geometry" />
        </mxCell>
        <mxCell id="sz_i2_uFU6Vz9e3H1PWR-222" value="&lt;span style=&quot;font-family: &amp;quot;Comic Sans MS&amp;quot;; font-size: 72px;&quot;&gt;Cadastro Fornecedor&lt;/span&gt;" style="text;strokeColor=none;fillColor=none;html=1;fontSize=12;fontStyle=1;verticalAlign=middle;align=center;fontFamily=Helvetica;fontColor=default;" vertex="1" parent="1">
          <mxGeometry x="-120" y="1810" width="890" height="160" as="geometry" />
        </mxCell>
        <mxCell id="sz_i2_uFU6Vz9e3H1PWR-223" value="&lt;font style=&quot;font-size: 48px;&quot; face=&quot;Comic Sans MS&quot;&gt;Nome Do Fornecedor&lt;/font&gt;" style="text;strokeColor=none;fillColor=none;html=1;fontSize=12;fontStyle=1;verticalAlign=middle;align=left;fontFamily=Helvetica;fontColor=default;" vertex="1" parent="1">
          <mxGeometry x="-111" y="1915" width="890" height="160" as="geometry" />
        </mxCell>
        <mxCell id="sz_i2_uFU6Vz9e3H1PWR-224" value="&lt;font face=&quot;Comic Sans MS&quot;&gt;&lt;span style=&quot;font-size: 48px;&quot;&gt;Telefone Do Fornecedor&lt;/span&gt;&lt;/font&gt;" style="text;strokeColor=none;fillColor=none;html=1;fontSize=12;fontStyle=1;verticalAlign=middle;align=left;fontFamily=Helvetica;fontColor=default;" vertex="1" parent="1">
          <mxGeometry x="-111" y="2170" width="890" height="160" as="geometry" />
        </mxCell>
        <mxCell id="sz_i2_uFU6Vz9e3H1PWR-225" value="&lt;font face=&quot;Comic Sans MS&quot;&gt;&lt;span style=&quot;font-size: 48px;&quot;&gt;CNPJ&lt;/span&gt;&lt;/font&gt;" style="text;strokeColor=none;fillColor=none;html=1;fontSize=12;fontStyle=1;verticalAlign=middle;align=left;fontFamily=Helvetica;fontColor=default;" vertex="1" parent="1">
          <mxGeometry x="-111" y="2405" width="890" height="160" as="geometry" />
        </mxCell>
        <mxCell id="sz_i2_uFU6Vz9e3H1PWR-226" value="&lt;font face=&quot;Comic Sans MS&quot;&gt;&lt;span style=&quot;font-size: 48px;&quot;&gt;Endereço Do Fornecedor&lt;/span&gt;&lt;/font&gt;" style="text;strokeColor=none;fillColor=none;html=1;fontSize=12;fontStyle=1;verticalAlign=middle;align=left;fontFamily=Helvetica;fontColor=default;" vertex="1" parent="1">
          <mxGeometry x="-101" y="2665" width="890" height="160" as="geometry" />
        </mxCell>
        <mxCell id="sz_i2_uFU6Vz9e3H1PWR-227" value="" style="rounded=1;whiteSpace=wrap;html=1;strokeColor=default;align=center;verticalAlign=middle;fontFamily=Helvetica;fontSize=12;fontColor=default;fillColor=default;" vertex="1" parent="1">
          <mxGeometry x="-111" y="2065" width="853" height="130" as="geometry" />
        </mxCell>
        <mxCell id="sz_i2_uFU6Vz9e3H1PWR-228" value="" style="rounded=1;whiteSpace=wrap;html=1;strokeColor=default;align=center;verticalAlign=middle;fontFamily=Helvetica;fontSize=12;fontColor=default;fillColor=default;" vertex="1" parent="1">
          <mxGeometry x="-111" y="2295" width="150" height="130" as="geometry" />
        </mxCell>
        <mxCell id="sz_i2_uFU6Vz9e3H1PWR-229" value="" style="rounded=1;whiteSpace=wrap;html=1;strokeColor=default;align=center;verticalAlign=middle;fontFamily=Helvetica;fontSize=12;fontColor=default;fillColor=default;" vertex="1" parent="1">
          <mxGeometry x="-111" y="2525" width="850" height="130" as="geometry" />
        </mxCell>
        <mxCell id="sz_i2_uFU6Vz9e3H1PWR-230" value="" style="rounded=1;whiteSpace=wrap;html=1;strokeColor=default;align=center;verticalAlign=middle;fontFamily=Helvetica;fontSize=12;fontColor=default;fillColor=default;" vertex="1" parent="1">
          <mxGeometry x="-101" y="2785" width="870" height="130" as="geometry" />
        </mxCell>
        <mxCell id="sz_i2_uFU6Vz9e3H1PWR-231" value="" style="rounded=1;whiteSpace=wrap;html=1;strokeColor=default;align=center;verticalAlign=middle;fontFamily=Helvetica;fontSize=12;fontColor=default;fillColor=default;" vertex="1" parent="1">
          <mxGeometry x="159" y="2295" width="580" height="130" as="geometry" />
        </mxCell>
        <mxCell id="sz_i2_uFU6Vz9e3H1PWR-232" value="&lt;font style=&quot;font-size: 100px;&quot;&gt;-&lt;/font&gt;" style="text;strokeColor=none;fillColor=none;html=1;fontSize=12;fontStyle=1;verticalAlign=middle;align=center;fontFamily=Helvetica;fontColor=default;" vertex="1" parent="1">
          <mxGeometry x="49" y="2330" width="100" height="40" as="geometry" />
        </mxCell>
        <mxCell id="sz_i2_uFU6Vz9e3H1PWR-233" value="&lt;font face=&quot;Comic Sans MS&quot;&gt;&lt;span style=&quot;font-size: 48px;&quot;&gt;Salvar&lt;/span&gt;&lt;/font&gt;" style="text;strokeColor=none;fillColor=none;html=1;fontSize=12;fontStyle=1;verticalAlign=middle;align=left;fontFamily=Helvetica;fontColor=default;" vertex="1" parent="1">
          <mxGeometry x="437.5" y="3270" width="160" height="160" as="geometry" />
        </mxCell>
        <mxCell id="sz_i2_uFU6Vz9e3H1PWR-234" value="&lt;font face=&quot;Comic Sans MS&quot;&gt;&lt;span style=&quot;font-size: 48px;&quot;&gt;Apagar&lt;/span&gt;&lt;/font&gt;" style="text;strokeColor=none;fillColor=none;html=1;fontSize=12;fontStyle=1;verticalAlign=middle;align=left;fontFamily=Helvetica;fontColor=default;" vertex="1" parent="1">
          <mxGeometry x="30.5" y="3270" width="190" height="160" as="geometry" />
        </mxCell>
        <mxCell id="sz_i2_uFU6Vz9e3H1PWR-235" value="" style="verticalLabelPosition=bottom;verticalAlign=top;html=1;shape=mxgraph.basic.x;rounded=1;strokeColor=#B20000;align=center;fontFamily=Helvetica;fontSize=12;fontColor=#ffffff;fillColor=#e51400;labelBackgroundColor=#FF0000;" vertex="1" parent="1">
          <mxGeometry x="40.5" y="3170" width="150" height="140" as="geometry" />
        </mxCell>
        <mxCell id="sz_i2_uFU6Vz9e3H1PWR-236" value="" style="verticalLabelPosition=bottom;verticalAlign=top;html=1;shape=mxgraph.basic.tick;rounded=1;strokeColor=#2D7600;align=center;fontFamily=Helvetica;fontSize=12;fontColor=#ffffff;fillColor=#60a917;" vertex="1" parent="1">
          <mxGeometry x="457.5" y="3150" width="140" height="160" as="geometry" />
        </mxCell>
        <mxCell id="sz_i2_uFU6Vz9e3H1PWR-237" value="" style="line;strokeWidth=10;html=1;rounded=1;strokeColor=default;align=center;verticalAlign=middle;fontFamily=Helvetica;fontSize=12;fontColor=default;fillColor=default;" vertex="1" parent="1">
          <mxGeometry x="-120" y="1934" width="890" height="10" as="geometry" />
        </mxCell>
        <mxCell id="sz_i2_uFU6Vz9e3H1PWR-238" value="&lt;font face=&quot;Times New Roman&quot; color=&quot;#ff0000&quot; style=&quot;font-size: 36px;&quot;&gt;Dados Invalidos&lt;/font&gt;" style="text;html=1;align=center;verticalAlign=middle;whiteSpace=wrap;rounded=0;fontFamily=Helvetica;fontSize=12;fontColor=default;" vertex="1" parent="1">
          <mxGeometry x="810" y="2355" width="480" height="30" as="geometry" />
        </mxCell>
        <mxCell id="sz_i2_uFU6Vz9e3H1PWR-239" value="&lt;ul&gt;&lt;li&gt;&lt;span style=&quot;font-size: 18px; background-color: initial;&quot;&gt;&lt;font color=&quot;#d90000&quot;&gt;Valide os dados para conseguir concluir o cadastro&lt;/font&gt;&lt;/span&gt;&lt;/li&gt;&lt;/ul&gt;&lt;div&gt;&lt;font color=&quot;#d90000&quot; style=&quot;font-size: 6px;&quot;&gt;&lt;br&gt;&lt;/font&gt;&lt;/div&gt;&lt;ul&gt;&lt;li&gt;&lt;span style=&quot;font-size: 18px; background-color: initial;&quot;&gt;&lt;font color=&quot;#d90000&quot;&gt;Verifique que o CASP LOCK esta desativado&amp;nbsp;&lt;/font&gt;&lt;/span&gt;&lt;/li&gt;&lt;/ul&gt;" style="text;html=1;align=left;verticalAlign=middle;whiteSpace=wrap;rounded=0;fontFamily=Helvetica;fontSize=12;fontColor=default;" vertex="1" parent="1">
          <mxGeometry x="810" y="2440" width="480" height="30" as="geometry" />
        </mxCell>
        <mxCell id="sz_i2_uFU6Vz9e3H1PWR-240" value="&lt;font style=&quot;font-size: 72px;&quot; face=&quot;Times New Roman&quot; color=&quot;#ff0000&quot;&gt;ERRO&lt;/font&gt;" style="text;html=1;align=center;verticalAlign=middle;whiteSpace=wrap;rounded=0;fontFamily=Helvetica;fontSize=12;fontColor=default;" vertex="1" parent="1">
          <mxGeometry x="810" y="2300" width="480" height="30" as="geometry" />
        </mxCell>
        <mxCell id="sz_i2_uFU6Vz9e3H1PWR-241" value="" style="verticalLabelPosition=bottom;verticalAlign=top;html=1;shape=mxgraph.basic.plaque_frame;dx=10;whiteSpace=wrap;rounded=1;align=center;fontFamily=Helvetica;fontSize=12;fillColor=#f8cecc;strokeColor=#b85450;" vertex="1" parent="1">
          <mxGeometry x="810" y="2270" width="480" height="250" as="geometry" />
        </mxCell>
        <mxCell id="sz_i2_uFU6Vz9e3H1PWR-242" value="" style="rounded=1;whiteSpace=wrap;html=1;rotation=90;fillColor=#FFFFFF;gradientColor=#CCCCCC;gradientDirection=north;" vertex="1" parent="1">
          <mxGeometry x="1050" y="2185" width="1600" height="900" as="geometry" />
        </mxCell>
        <mxCell id="sz_i2_uFU6Vz9e3H1PWR-243" value="" style="edgeStyle=orthogonalEdgeStyle;rounded=0;orthogonalLoop=1;jettySize=auto;html=1;fontFamily=Helvetica;fontSize=12;fontColor=default;" edge="1" parent="1">
          <mxGeometry relative="1" as="geometry">
            <mxPoint x="1580" y="2480.2" as="sourcePoint" />
            <mxPoint x="1560.1999999999998" y="2490.230061349693" as="targetPoint" />
          </mxGeometry>
        </mxCell>
        <mxCell id="sz_i2_uFU6Vz9e3H1PWR-244" value="&lt;font face=&quot;Comic Sans MS&quot;&gt;&lt;span style=&quot;font-size: 48px;&quot;&gt;Salvar&lt;/span&gt;&lt;/font&gt;" style="text;strokeColor=none;fillColor=none;html=1;fontSize=12;fontStyle=1;verticalAlign=middle;align=left;fontFamily=Helvetica;fontColor=default;" vertex="1" parent="1">
          <mxGeometry x="2000" y="3295" width="160" height="160" as="geometry" />
        </mxCell>
        <mxCell id="sz_i2_uFU6Vz9e3H1PWR-245" value="&lt;font face=&quot;Comic Sans MS&quot;&gt;&lt;span style=&quot;font-size: 48px;&quot;&gt;Apagar&lt;/span&gt;&lt;/font&gt;" style="text;strokeColor=none;fillColor=none;html=1;fontSize=12;fontStyle=1;verticalAlign=middle;align=left;fontFamily=Helvetica;fontColor=default;" vertex="1" parent="1">
          <mxGeometry x="1550" y="3295" width="190" height="160" as="geometry" />
        </mxCell>
        <mxCell id="sz_i2_uFU6Vz9e3H1PWR-246" value="" style="verticalLabelPosition=bottom;verticalAlign=top;html=1;shape=mxgraph.basic.x;rounded=1;strokeColor=#B20000;align=center;fontFamily=Helvetica;fontSize=12;fontColor=#ffffff;fillColor=#e51400;labelBackgroundColor=#FF0000;" vertex="1" parent="1">
          <mxGeometry x="1560" y="3205" width="150" height="140" as="geometry" />
        </mxCell>
        <mxCell id="sz_i2_uFU6Vz9e3H1PWR-247" value="" style="verticalLabelPosition=bottom;verticalAlign=top;html=1;shape=mxgraph.basic.tick;rounded=1;strokeColor=#2D7600;align=center;fontFamily=Helvetica;fontSize=12;fontColor=#ffffff;fillColor=#60a917;" vertex="1" parent="1">
          <mxGeometry x="2018" y="3195" width="140" height="160" as="geometry" />
        </mxCell>
        <mxCell id="sz_i2_uFU6Vz9e3H1PWR-248" value="" style="shape=table;startSize=0;container=1;collapsible=0;childLayout=tableLayout;fontSize=16;rounded=1;strokeColor=default;align=center;verticalAlign=middle;fontFamily=Helvetica;fontColor=default;fillColor=default;" vertex="1" parent="1">
          <mxGeometry x="1410" y="2168" width="880" height="313" as="geometry" />
        </mxCell>
        <mxCell id="sz_i2_uFU6Vz9e3H1PWR-249" value="" style="shape=tableRow;horizontal=0;startSize=0;swimlaneHead=0;swimlaneBody=0;strokeColor=inherit;top=0;left=0;bottom=0;right=0;collapsible=0;dropTarget=0;fillColor=none;points=[[0,0.5],[1,0.5]];portConstraint=eastwest;fontSize=16;rounded=1;align=center;verticalAlign=middle;fontFamily=Helvetica;fontColor=default;" vertex="1" parent="sz_i2_uFU6Vz9e3H1PWR-248">
          <mxGeometry width="880" height="103" as="geometry" />
        </mxCell>
        <mxCell id="sz_i2_uFU6Vz9e3H1PWR-250" value="" style="shape=partialRectangle;html=1;whiteSpace=wrap;connectable=0;strokeColor=inherit;overflow=hidden;fillColor=none;top=0;left=0;bottom=0;right=0;pointerEvents=1;fontSize=16;rounded=1;align=center;verticalAlign=middle;fontFamily=Helvetica;fontColor=default;" vertex="1" parent="sz_i2_uFU6Vz9e3H1PWR-249">
          <mxGeometry width="293" height="103" as="geometry">
            <mxRectangle width="293" height="103" as="alternateBounds" />
          </mxGeometry>
        </mxCell>
        <mxCell id="sz_i2_uFU6Vz9e3H1PWR-251" value="" style="shape=partialRectangle;html=1;whiteSpace=wrap;connectable=0;strokeColor=inherit;overflow=hidden;fillColor=none;top=0;left=0;bottom=0;right=0;pointerEvents=1;fontSize=16;rounded=1;align=center;verticalAlign=middle;fontFamily=Helvetica;fontColor=default;" vertex="1" parent="sz_i2_uFU6Vz9e3H1PWR-249">
          <mxGeometry x="293" width="294" height="103" as="geometry">
            <mxRectangle width="294" height="103" as="alternateBounds" />
          </mxGeometry>
        </mxCell>
        <mxCell id="sz_i2_uFU6Vz9e3H1PWR-252" value="" style="shape=partialRectangle;html=1;whiteSpace=wrap;connectable=0;strokeColor=inherit;overflow=hidden;fillColor=none;top=0;left=0;bottom=0;right=0;pointerEvents=1;fontSize=16;rounded=1;align=center;verticalAlign=middle;fontFamily=Helvetica;fontColor=default;" vertex="1" parent="sz_i2_uFU6Vz9e3H1PWR-249">
          <mxGeometry x="587" width="293" height="103" as="geometry">
            <mxRectangle width="293" height="103" as="alternateBounds" />
          </mxGeometry>
        </mxCell>
        <mxCell id="sz_i2_uFU6Vz9e3H1PWR-253" value="" style="shape=tableRow;horizontal=0;startSize=0;swimlaneHead=0;swimlaneBody=0;strokeColor=inherit;top=0;left=0;bottom=0;right=0;collapsible=0;dropTarget=0;fillColor=none;points=[[0,0.5],[1,0.5]];portConstraint=eastwest;fontSize=16;rounded=1;align=center;verticalAlign=middle;fontFamily=Helvetica;fontColor=default;" vertex="1" parent="sz_i2_uFU6Vz9e3H1PWR-248">
          <mxGeometry y="103" width="880" height="107" as="geometry" />
        </mxCell>
        <mxCell id="sz_i2_uFU6Vz9e3H1PWR-254" value="" style="shape=partialRectangle;html=1;whiteSpace=wrap;connectable=0;strokeColor=inherit;overflow=hidden;fillColor=none;top=0;left=0;bottom=0;right=0;pointerEvents=1;fontSize=16;rounded=1;align=center;verticalAlign=middle;fontFamily=Helvetica;fontColor=default;" vertex="1" parent="sz_i2_uFU6Vz9e3H1PWR-253">
          <mxGeometry width="293" height="107" as="geometry">
            <mxRectangle width="293" height="107" as="alternateBounds" />
          </mxGeometry>
        </mxCell>
        <mxCell id="sz_i2_uFU6Vz9e3H1PWR-255" value="" style="shape=partialRectangle;html=1;whiteSpace=wrap;connectable=0;strokeColor=inherit;overflow=hidden;fillColor=none;top=0;left=0;bottom=0;right=0;pointerEvents=1;fontSize=16;rounded=1;align=center;verticalAlign=middle;fontFamily=Helvetica;fontColor=default;" vertex="1" parent="sz_i2_uFU6Vz9e3H1PWR-253">
          <mxGeometry x="293" width="294" height="107" as="geometry">
            <mxRectangle width="294" height="107" as="alternateBounds" />
          </mxGeometry>
        </mxCell>
        <mxCell id="sz_i2_uFU6Vz9e3H1PWR-256" value="" style="shape=partialRectangle;html=1;whiteSpace=wrap;connectable=0;strokeColor=inherit;overflow=hidden;fillColor=none;top=0;left=0;bottom=0;right=0;pointerEvents=1;fontSize=16;rounded=1;align=center;verticalAlign=middle;fontFamily=Helvetica;fontColor=default;" vertex="1" parent="sz_i2_uFU6Vz9e3H1PWR-253">
          <mxGeometry x="587" width="293" height="107" as="geometry">
            <mxRectangle width="293" height="107" as="alternateBounds" />
          </mxGeometry>
        </mxCell>
        <mxCell id="sz_i2_uFU6Vz9e3H1PWR-257" value="" style="shape=tableRow;horizontal=0;startSize=0;swimlaneHead=0;swimlaneBody=0;strokeColor=inherit;top=0;left=0;bottom=0;right=0;collapsible=0;dropTarget=0;fillColor=none;points=[[0,0.5],[1,0.5]];portConstraint=eastwest;fontSize=16;rounded=1;align=center;verticalAlign=middle;fontFamily=Helvetica;fontColor=default;" vertex="1" parent="sz_i2_uFU6Vz9e3H1PWR-248">
          <mxGeometry y="210" width="880" height="103" as="geometry" />
        </mxCell>
        <mxCell id="sz_i2_uFU6Vz9e3H1PWR-258" value="" style="shape=partialRectangle;html=1;whiteSpace=wrap;connectable=0;strokeColor=inherit;overflow=hidden;fillColor=none;top=0;left=0;bottom=0;right=0;pointerEvents=1;fontSize=16;rounded=1;align=center;verticalAlign=middle;fontFamily=Helvetica;fontColor=default;" vertex="1" parent="sz_i2_uFU6Vz9e3H1PWR-257">
          <mxGeometry width="293" height="103" as="geometry">
            <mxRectangle width="293" height="103" as="alternateBounds" />
          </mxGeometry>
        </mxCell>
        <mxCell id="sz_i2_uFU6Vz9e3H1PWR-259" value="" style="shape=partialRectangle;html=1;whiteSpace=wrap;connectable=0;strokeColor=inherit;overflow=hidden;fillColor=none;top=0;left=0;bottom=0;right=0;pointerEvents=1;fontSize=16;rounded=1;align=center;verticalAlign=middle;fontFamily=Helvetica;fontColor=default;" vertex="1" parent="sz_i2_uFU6Vz9e3H1PWR-257">
          <mxGeometry x="293" width="294" height="103" as="geometry">
            <mxRectangle width="294" height="103" as="alternateBounds" />
          </mxGeometry>
        </mxCell>
        <mxCell id="sz_i2_uFU6Vz9e3H1PWR-260" value="" style="shape=partialRectangle;html=1;whiteSpace=wrap;connectable=0;strokeColor=inherit;overflow=hidden;fillColor=none;top=0;left=0;bottom=0;right=0;pointerEvents=1;fontSize=16;rounded=1;align=center;verticalAlign=middle;fontFamily=Helvetica;fontColor=default;" vertex="1" parent="sz_i2_uFU6Vz9e3H1PWR-257">
          <mxGeometry x="587" width="293" height="103" as="geometry">
            <mxRectangle width="293" height="103" as="alternateBounds" />
          </mxGeometry>
        </mxCell>
        <mxCell id="sz_i2_uFU6Vz9e3H1PWR-261" value="" style="shape=table;startSize=0;container=1;collapsible=0;childLayout=tableLayout;fontSize=16;rounded=1;strokeColor=default;align=center;verticalAlign=middle;fontFamily=Helvetica;fontColor=default;fillColor=default;" vertex="1" parent="1">
          <mxGeometry x="1410" y="2481" width="880" height="626" as="geometry" />
        </mxCell>
        <mxCell id="sz_i2_uFU6Vz9e3H1PWR-262" value="" style="shape=tableRow;horizontal=0;startSize=0;swimlaneHead=0;swimlaneBody=0;strokeColor=inherit;top=0;left=0;bottom=0;right=0;collapsible=0;dropTarget=0;fillColor=none;points=[[0,0.5],[1,0.5]];portConstraint=eastwest;fontSize=16;rounded=1;align=center;verticalAlign=middle;fontFamily=Helvetica;fontColor=default;" vertex="1" parent="sz_i2_uFU6Vz9e3H1PWR-261">
          <mxGeometry width="880" height="107" as="geometry" />
        </mxCell>
        <mxCell id="sz_i2_uFU6Vz9e3H1PWR-263" value="" style="shape=partialRectangle;html=1;whiteSpace=wrap;connectable=0;strokeColor=inherit;overflow=hidden;fillColor=none;top=0;left=0;bottom=0;right=0;pointerEvents=1;fontSize=16;rounded=1;align=center;verticalAlign=middle;fontFamily=Helvetica;fontColor=default;" vertex="1" parent="sz_i2_uFU6Vz9e3H1PWR-262">
          <mxGeometry width="293" height="107" as="geometry">
            <mxRectangle width="293" height="107" as="alternateBounds" />
          </mxGeometry>
        </mxCell>
        <mxCell id="sz_i2_uFU6Vz9e3H1PWR-264" value="" style="shape=partialRectangle;html=1;whiteSpace=wrap;connectable=0;strokeColor=inherit;overflow=hidden;fillColor=none;top=0;left=0;bottom=0;right=0;pointerEvents=1;fontSize=16;rounded=1;align=center;verticalAlign=middle;fontFamily=Helvetica;fontColor=default;" vertex="1" parent="sz_i2_uFU6Vz9e3H1PWR-262">
          <mxGeometry x="293" width="294" height="107" as="geometry">
            <mxRectangle width="294" height="107" as="alternateBounds" />
          </mxGeometry>
        </mxCell>
        <mxCell id="sz_i2_uFU6Vz9e3H1PWR-265" value="" style="shape=partialRectangle;html=1;whiteSpace=wrap;connectable=0;strokeColor=inherit;overflow=hidden;fillColor=none;top=0;left=0;bottom=0;right=0;pointerEvents=1;fontSize=16;rounded=1;align=center;verticalAlign=middle;fontFamily=Helvetica;fontColor=default;" vertex="1" parent="sz_i2_uFU6Vz9e3H1PWR-262">
          <mxGeometry x="587" width="293" height="107" as="geometry">
            <mxRectangle width="293" height="107" as="alternateBounds" />
          </mxGeometry>
        </mxCell>
        <mxCell id="sz_i2_uFU6Vz9e3H1PWR-266" value="" style="shape=tableRow;horizontal=0;startSize=0;swimlaneHead=0;swimlaneBody=0;strokeColor=inherit;top=0;left=0;bottom=0;right=0;collapsible=0;dropTarget=0;fillColor=none;points=[[0,0.5],[1,0.5]];portConstraint=eastwest;fontSize=16;rounded=1;align=center;verticalAlign=middle;fontFamily=Helvetica;fontColor=default;" vertex="1" parent="sz_i2_uFU6Vz9e3H1PWR-261">
          <mxGeometry y="107" width="880" height="103" as="geometry" />
        </mxCell>
        <mxCell id="sz_i2_uFU6Vz9e3H1PWR-267" value="" style="shape=partialRectangle;html=1;whiteSpace=wrap;connectable=0;strokeColor=inherit;overflow=hidden;fillColor=none;top=0;left=0;bottom=0;right=0;pointerEvents=1;fontSize=16;rounded=1;align=center;verticalAlign=middle;fontFamily=Helvetica;fontColor=default;" vertex="1" parent="sz_i2_uFU6Vz9e3H1PWR-266">
          <mxGeometry width="293" height="103" as="geometry">
            <mxRectangle width="293" height="103" as="alternateBounds" />
          </mxGeometry>
        </mxCell>
        <mxCell id="sz_i2_uFU6Vz9e3H1PWR-268" value="" style="shape=partialRectangle;html=1;whiteSpace=wrap;connectable=0;strokeColor=inherit;overflow=hidden;fillColor=none;top=0;left=0;bottom=0;right=0;pointerEvents=1;fontSize=16;rounded=1;align=center;verticalAlign=middle;fontFamily=Helvetica;fontColor=default;" vertex="1" parent="sz_i2_uFU6Vz9e3H1PWR-266">
          <mxGeometry x="293" width="294" height="103" as="geometry">
            <mxRectangle width="294" height="103" as="alternateBounds" />
          </mxGeometry>
        </mxCell>
        <mxCell id="sz_i2_uFU6Vz9e3H1PWR-269" value="" style="shape=partialRectangle;html=1;whiteSpace=wrap;connectable=0;strokeColor=inherit;overflow=hidden;fillColor=none;top=0;left=0;bottom=0;right=0;pointerEvents=1;fontSize=16;rounded=1;align=center;verticalAlign=middle;fontFamily=Helvetica;fontColor=default;" vertex="1" parent="sz_i2_uFU6Vz9e3H1PWR-266">
          <mxGeometry x="587" width="293" height="103" as="geometry">
            <mxRectangle width="293" height="103" as="alternateBounds" />
          </mxGeometry>
        </mxCell>
        <mxCell id="sz_i2_uFU6Vz9e3H1PWR-270" value="" style="shape=tableRow;horizontal=0;startSize=0;swimlaneHead=0;swimlaneBody=0;strokeColor=inherit;top=0;left=0;bottom=0;right=0;collapsible=0;dropTarget=0;fillColor=none;points=[[0,0.5],[1,0.5]];portConstraint=eastwest;fontSize=16;rounded=1;align=center;verticalAlign=middle;fontFamily=Helvetica;fontColor=default;" vertex="1" parent="sz_i2_uFU6Vz9e3H1PWR-261">
          <mxGeometry y="210" width="880" height="103" as="geometry" />
        </mxCell>
        <mxCell id="sz_i2_uFU6Vz9e3H1PWR-271" value="" style="shape=partialRectangle;html=1;whiteSpace=wrap;connectable=0;strokeColor=inherit;overflow=hidden;fillColor=none;top=0;left=0;bottom=0;right=0;pointerEvents=1;fontSize=16;rounded=1;align=center;verticalAlign=middle;fontFamily=Helvetica;fontColor=default;" vertex="1" parent="sz_i2_uFU6Vz9e3H1PWR-270">
          <mxGeometry width="293" height="103" as="geometry">
            <mxRectangle width="293" height="103" as="alternateBounds" />
          </mxGeometry>
        </mxCell>
        <mxCell id="sz_i2_uFU6Vz9e3H1PWR-272" value="" style="shape=partialRectangle;html=1;whiteSpace=wrap;connectable=0;strokeColor=inherit;overflow=hidden;fillColor=none;top=0;left=0;bottom=0;right=0;pointerEvents=1;fontSize=16;rounded=1;align=center;verticalAlign=middle;fontFamily=Helvetica;fontColor=default;" vertex="1" parent="sz_i2_uFU6Vz9e3H1PWR-270">
          <mxGeometry x="293" width="294" height="103" as="geometry">
            <mxRectangle width="294" height="103" as="alternateBounds" />
          </mxGeometry>
        </mxCell>
        <mxCell id="sz_i2_uFU6Vz9e3H1PWR-273" value="" style="shape=partialRectangle;html=1;whiteSpace=wrap;connectable=0;strokeColor=inherit;overflow=hidden;fillColor=none;top=0;left=0;bottom=0;right=0;pointerEvents=1;fontSize=16;rounded=1;align=center;verticalAlign=middle;fontFamily=Helvetica;fontColor=default;" vertex="1" parent="sz_i2_uFU6Vz9e3H1PWR-270">
          <mxGeometry x="587" width="293" height="103" as="geometry">
            <mxRectangle width="293" height="103" as="alternateBounds" />
          </mxGeometry>
        </mxCell>
        <mxCell id="sz_i2_uFU6Vz9e3H1PWR-274" value="" style="shape=tableRow;horizontal=0;startSize=0;swimlaneHead=0;swimlaneBody=0;strokeColor=inherit;top=0;left=0;bottom=0;right=0;collapsible=0;dropTarget=0;fillColor=none;points=[[0,0.5],[1,0.5]];portConstraint=eastwest;fontSize=16;rounded=1;align=center;verticalAlign=middle;fontFamily=Helvetica;fontColor=default;" vertex="1" parent="sz_i2_uFU6Vz9e3H1PWR-261">
          <mxGeometry y="313" width="880" height="103" as="geometry" />
        </mxCell>
        <mxCell id="sz_i2_uFU6Vz9e3H1PWR-275" value="" style="shape=partialRectangle;html=1;whiteSpace=wrap;connectable=0;strokeColor=inherit;overflow=hidden;fillColor=none;top=0;left=0;bottom=0;right=0;pointerEvents=1;fontSize=16;rounded=1;align=center;verticalAlign=middle;fontFamily=Helvetica;fontColor=default;" vertex="1" parent="sz_i2_uFU6Vz9e3H1PWR-274">
          <mxGeometry width="293" height="103" as="geometry">
            <mxRectangle width="293" height="103" as="alternateBounds" />
          </mxGeometry>
        </mxCell>
        <mxCell id="sz_i2_uFU6Vz9e3H1PWR-276" value="" style="shape=partialRectangle;html=1;whiteSpace=wrap;connectable=0;strokeColor=inherit;overflow=hidden;fillColor=none;top=0;left=0;bottom=0;right=0;pointerEvents=1;fontSize=16;rounded=1;align=center;verticalAlign=middle;fontFamily=Helvetica;fontColor=default;" vertex="1" parent="sz_i2_uFU6Vz9e3H1PWR-274">
          <mxGeometry x="293" width="294" height="103" as="geometry">
            <mxRectangle width="294" height="103" as="alternateBounds" />
          </mxGeometry>
        </mxCell>
        <mxCell id="sz_i2_uFU6Vz9e3H1PWR-277" value="" style="shape=partialRectangle;html=1;whiteSpace=wrap;connectable=0;strokeColor=inherit;overflow=hidden;fillColor=none;top=0;left=0;bottom=0;right=0;pointerEvents=1;fontSize=16;rounded=1;align=center;verticalAlign=middle;fontFamily=Helvetica;fontColor=default;" vertex="1" parent="sz_i2_uFU6Vz9e3H1PWR-274">
          <mxGeometry x="587" width="293" height="103" as="geometry">
            <mxRectangle width="293" height="103" as="alternateBounds" />
          </mxGeometry>
        </mxCell>
        <mxCell id="sz_i2_uFU6Vz9e3H1PWR-278" value="" style="shape=tableRow;horizontal=0;startSize=0;swimlaneHead=0;swimlaneBody=0;strokeColor=inherit;top=0;left=0;bottom=0;right=0;collapsible=0;dropTarget=0;fillColor=none;points=[[0,0.5],[1,0.5]];portConstraint=eastwest;fontSize=16;rounded=1;align=center;verticalAlign=middle;fontFamily=Helvetica;fontColor=default;" vertex="1" parent="sz_i2_uFU6Vz9e3H1PWR-261">
          <mxGeometry y="416" width="880" height="107" as="geometry" />
        </mxCell>
        <mxCell id="sz_i2_uFU6Vz9e3H1PWR-279" value="" style="shape=partialRectangle;html=1;whiteSpace=wrap;connectable=0;strokeColor=inherit;overflow=hidden;fillColor=none;top=0;left=0;bottom=0;right=0;pointerEvents=1;fontSize=16;rounded=1;align=center;verticalAlign=middle;fontFamily=Helvetica;fontColor=default;" vertex="1" parent="sz_i2_uFU6Vz9e3H1PWR-278">
          <mxGeometry width="293" height="107" as="geometry">
            <mxRectangle width="293" height="107" as="alternateBounds" />
          </mxGeometry>
        </mxCell>
        <mxCell id="sz_i2_uFU6Vz9e3H1PWR-280" value="" style="shape=partialRectangle;html=1;whiteSpace=wrap;connectable=0;strokeColor=inherit;overflow=hidden;fillColor=none;top=0;left=0;bottom=0;right=0;pointerEvents=1;fontSize=16;rounded=1;align=center;verticalAlign=middle;fontFamily=Helvetica;fontColor=default;" vertex="1" parent="sz_i2_uFU6Vz9e3H1PWR-278">
          <mxGeometry x="293" width="294" height="107" as="geometry">
            <mxRectangle width="294" height="107" as="alternateBounds" />
          </mxGeometry>
        </mxCell>
        <mxCell id="sz_i2_uFU6Vz9e3H1PWR-281" value="" style="shape=partialRectangle;html=1;whiteSpace=wrap;connectable=0;strokeColor=inherit;overflow=hidden;fillColor=none;top=0;left=0;bottom=0;right=0;pointerEvents=1;fontSize=16;rounded=1;align=center;verticalAlign=middle;fontFamily=Helvetica;fontColor=default;" vertex="1" parent="sz_i2_uFU6Vz9e3H1PWR-278">
          <mxGeometry x="587" width="293" height="107" as="geometry">
            <mxRectangle width="293" height="107" as="alternateBounds" />
          </mxGeometry>
        </mxCell>
        <mxCell id="sz_i2_uFU6Vz9e3H1PWR-282" value="" style="shape=tableRow;horizontal=0;startSize=0;swimlaneHead=0;swimlaneBody=0;strokeColor=inherit;top=0;left=0;bottom=0;right=0;collapsible=0;dropTarget=0;fillColor=none;points=[[0,0.5],[1,0.5]];portConstraint=eastwest;fontSize=16;rounded=1;align=center;verticalAlign=middle;fontFamily=Helvetica;fontColor=default;" vertex="1" parent="sz_i2_uFU6Vz9e3H1PWR-261">
          <mxGeometry y="523" width="880" height="103" as="geometry" />
        </mxCell>
        <mxCell id="sz_i2_uFU6Vz9e3H1PWR-283" value="" style="shape=partialRectangle;html=1;whiteSpace=wrap;connectable=0;strokeColor=inherit;overflow=hidden;fillColor=none;top=0;left=0;bottom=0;right=0;pointerEvents=1;fontSize=16;rounded=1;align=center;verticalAlign=middle;fontFamily=Helvetica;fontColor=default;" vertex="1" parent="sz_i2_uFU6Vz9e3H1PWR-282">
          <mxGeometry width="293" height="103" as="geometry">
            <mxRectangle width="293" height="103" as="alternateBounds" />
          </mxGeometry>
        </mxCell>
        <mxCell id="sz_i2_uFU6Vz9e3H1PWR-284" value="" style="shape=partialRectangle;html=1;whiteSpace=wrap;connectable=0;strokeColor=inherit;overflow=hidden;fillColor=none;top=0;left=0;bottom=0;right=0;pointerEvents=1;fontSize=16;rounded=1;align=center;verticalAlign=middle;fontFamily=Helvetica;fontColor=default;" vertex="1" parent="sz_i2_uFU6Vz9e3H1PWR-282">
          <mxGeometry x="293" width="294" height="103" as="geometry">
            <mxRectangle width="294" height="103" as="alternateBounds" />
          </mxGeometry>
        </mxCell>
        <mxCell id="sz_i2_uFU6Vz9e3H1PWR-285" value="" style="shape=partialRectangle;html=1;whiteSpace=wrap;connectable=0;strokeColor=inherit;overflow=hidden;fillColor=none;top=0;left=0;bottom=0;right=0;pointerEvents=1;fontSize=16;rounded=1;align=center;verticalAlign=middle;fontFamily=Helvetica;fontColor=default;" vertex="1" parent="sz_i2_uFU6Vz9e3H1PWR-282">
          <mxGeometry x="587" width="293" height="103" as="geometry">
            <mxRectangle width="293" height="103" as="alternateBounds" />
          </mxGeometry>
        </mxCell>
        <mxCell id="sz_i2_uFU6Vz9e3H1PWR-286" value="" style="line;strokeWidth=10;html=1;rounded=1;strokeColor=default;align=center;verticalAlign=middle;fontFamily=Helvetica;fontSize=12;fontColor=default;fillColor=default;" vertex="1" parent="1">
          <mxGeometry x="1410" y="1915" width="880" height="10" as="geometry" />
        </mxCell>
        <mxCell id="sz_i2_uFU6Vz9e3H1PWR-287" value="&lt;font style=&quot;font-size: 48px;&quot; face=&quot;Comic Sans MS&quot;&gt;Nome&lt;/font&gt;" style="text;strokeColor=none;fillColor=none;html=1;fontSize=12;fontStyle=1;verticalAlign=middle;align=left;fontFamily=Helvetica;fontColor=default;" vertex="1" parent="1">
          <mxGeometry x="1480" y="2085" width="160" height="100" as="geometry" />
        </mxCell>
        <mxCell id="sz_i2_uFU6Vz9e3H1PWR-288" value="&lt;font face=&quot;Comic Sans MS&quot;&gt;&lt;span style=&quot;font-size: 48px;&quot;&gt;Telefone&lt;/span&gt;&lt;/font&gt;" style="text;strokeColor=none;fillColor=none;html=1;fontSize=12;fontStyle=1;verticalAlign=middle;align=left;fontFamily=Helvetica;fontColor=default;" vertex="1" parent="1">
          <mxGeometry x="1740" y="2080" width="210" height="110" as="geometry" />
        </mxCell>
        <mxCell id="sz_i2_uFU6Vz9e3H1PWR-289" value="&lt;font face=&quot;Comic Sans MS&quot;&gt;&lt;span style=&quot;font-size: 48px;&quot;&gt;CPF&lt;/span&gt;&lt;/font&gt;" style="text;strokeColor=none;fillColor=none;html=1;fontSize=12;fontStyle=1;verticalAlign=middle;align=left;fontFamily=Helvetica;fontColor=default;" vertex="1" parent="1">
          <mxGeometry x="2130" y="2090" width="100" height="90" as="geometry" />
        </mxCell>
        <mxCell id="sz_i2_uFU6Vz9e3H1PWR-290" value="" style="shape=image;html=1;verticalLabelPosition=bottom;verticalAlign=top;imageAspect=1;aspect=fixed;image=https://cdn-icons-png.flaticon.com/512/57/57477.png;rounded=1;strokeColor=default;align=center;fontFamily=Helvetica;fontSize=12;fontColor=default;fillColor=default;" vertex="1" parent="1">
          <mxGeometry x="1427.47" y="1993.5" width="52.53" height="61.63" as="geometry" />
        </mxCell>
        <mxCell id="sz_i2_uFU6Vz9e3H1PWR-291" value="&lt;span style=&quot;font-size: 24px; color: rgb(179, 179, 179); background-color: initial;&quot;&gt;&amp;nbsp;&lt;/span&gt;&lt;span style=&quot;color: rgb(179, 179, 179); background-color: initial;&quot;&gt;&lt;font style=&quot;font-size: 30px;&quot;&gt;Buscar&lt;/font&gt;&lt;/span&gt;" style="rounded=1;whiteSpace=wrap;html=1;strokeColor=default;align=left;verticalAlign=middle;fontFamily=Helvetica;fontSize=12;fontColor=default;fillColor=default;" vertex="1" parent="1">
          <mxGeometry x="1500" y="1993.5" width="793" height="65" as="geometry" />
        </mxCell>
        <mxCell id="sz_i2_uFU6Vz9e3H1PWR-292" value="&lt;span style=&quot;font-family: &amp;quot;Comic Sans MS&amp;quot;; font-size: 72px;&quot;&gt;Lista Fornecedor&lt;/span&gt;" style="text;strokeColor=none;fillColor=none;html=1;fontSize=12;fontStyle=1;verticalAlign=middle;align=center;fontFamily=Helvetica;fontColor=default;" vertex="1" parent="1">
          <mxGeometry x="1427.47" y="1790" width="890" height="160" as="geometry" />
        </mxCell>
      </root>
    </mxGraphModel>
  </diagram>
  <diagram id="VHvQWGqalnMqaW_z2vE9" name="Página-5">
    <mxGraphModel dx="674" dy="1103" grid="1" gridSize="10" guides="1" tooltips="1" connect="1" arrows="1" fold="1" page="1" pageScale="1" pageWidth="827" pageHeight="1169" math="0" shadow="0">
      <root>
        <mxCell id="0" />
        <mxCell id="1" parent="0" />
        <mxCell id="KYriZGKGZ3zNpDLnmyxH-1" value="&lt;font style=&quot;font-size: 36px;&quot;&gt;Cliente&lt;/font&gt;" style="shape=ext;double=1;rounded=1;whiteSpace=wrap;html=1;" vertex="1" parent="1">
          <mxGeometry x="543.12" y="310" width="500" height="130" as="geometry" />
        </mxCell>
        <mxCell id="KYriZGKGZ3zNpDLnmyxH-2" value="&lt;font style=&quot;font-size: 36px;&quot;&gt;Fornecedor&lt;/font&gt;" style="shape=ext;double=1;rounded=1;whiteSpace=wrap;html=1;" vertex="1" parent="1">
          <mxGeometry x="543.13" y="490" width="500" height="130" as="geometry" />
        </mxCell>
        <mxCell id="KYriZGKGZ3zNpDLnmyxH-3" value="&lt;font style=&quot;font-size: 36px;&quot;&gt;Materias-Prima&lt;/font&gt;" style="shape=ext;double=1;rounded=1;whiteSpace=wrap;html=1;" vertex="1" parent="1">
          <mxGeometry x="543.12" y="680" width="500" height="130" as="geometry" />
        </mxCell>
        <mxCell id="KYriZGKGZ3zNpDLnmyxH-4" value="" style="shape=ext;double=1;rounded=1;whiteSpace=wrap;html=1;" vertex="1" parent="1">
          <mxGeometry x="543.13" y="870" width="500" height="130" as="geometry" />
        </mxCell>
      </root>
    </mxGraphModel>
  </diagram>
</mxfile>
